<svg width="1940" height="343" viewBox="0 0 1940 343" fill="none" xmlns="http://www.w3.org/2000/svg">
<g clip-path="url(#clip0_443_857)">
<rect width="1940" height="343" fill="white"/>
<rect x="-3.8999" width="80.3148" height="20.5514" rx="3" fill="#E14646" fill-opacity="0.3"/>
<path d="M3.75297 14V3.81818H7.19332C7.98877 3.81818 8.64171 3.95407 9.15212 4.22585C9.66254 4.49432 10.0404 4.86387 10.2856 5.33452C10.5309 5.80516 10.6535 6.34044 10.6535 6.94034C10.6535 7.54025 10.5309 8.07221 10.2856 8.53622C10.0404 9.00024 9.6642 9.36482 9.15709 9.62997C8.64999 9.89181 8.00203 10.0227 7.2132 10.0227H4.42911V8.90909H7.17343C7.71699 8.90909 8.15449 8.82955 8.48593 8.67045C8.82068 8.51136 9.06263 8.28598 9.21178 7.99432C9.36424 7.69934 9.44047 7.34801 9.44047 6.94034C9.44047 6.53267 9.36424 6.17637 9.21178 5.87145C9.05932 5.56652 8.81571 5.3312 8.48096 5.16548C8.1462 4.99645 7.70373 4.91193 7.15354 4.91193H4.98593V14H3.75297ZM8.54559 9.42614L11.0513 14H9.61945L7.15354 9.42614H8.54559ZM15.6686 14.1591C14.9328 14.1591 14.2981 13.9967 13.7645 13.6719C13.2342 13.3438 12.8249 12.8864 12.5365 12.2997C12.2515 11.7098 12.109 11.0237 12.109 10.2415C12.109 9.45928 12.2515 8.76989 12.5365 8.1733C12.8249 7.57339 13.2259 7.10606 13.7397 6.77131C14.2567 6.43324 14.8599 6.2642 15.5493 6.2642C15.947 6.2642 16.3398 6.33049 16.7276 6.46307C17.1154 6.59564 17.4684 6.81108 17.7865 7.10938C18.1047 7.40436 18.3583 7.79545 18.5472 8.28267C18.7361 8.76989 18.8306 9.36979 18.8306 10.0824V10.5795H12.9442V9.56534H17.6374C17.6374 9.13447 17.5512 8.75 17.3789 8.41193C17.2098 8.07386 16.9679 7.80705 16.653 7.61151C16.3415 7.41596 15.9736 7.31818 15.5493 7.31818C15.082 7.31818 14.6776 7.43419 14.3362 7.66619C13.9982 7.89489 13.738 8.19318 13.5557 8.56108C13.3734 8.92898 13.2823 9.32339 13.2823 9.74432V10.4205C13.2823 10.9972 13.3817 11.486 13.5806 11.8871C13.7827 12.2848 14.0628 12.5881 14.4208 12.7969C14.7787 13.0024 15.1947 13.1051 15.6686 13.1051C15.9769 13.1051 16.2553 13.062 16.5039 12.9759C16.7558 12.8864 16.9728 12.7538 17.1551 12.5781C17.3374 12.3991 17.4783 12.1771 17.5777 11.9119L18.7112 12.2301C18.5919 12.6146 18.3914 12.9527 18.1097 13.2443C17.828 13.5327 17.48 13.758 17.0657 13.9205C16.6514 14.0795 16.1857 14.1591 15.6686 14.1591ZM23.4989 14.1591C22.8625 14.1591 22.3007 13.9983 21.8135 13.6768C21.3263 13.352 20.9451 12.8946 20.6701 12.3047C20.395 11.7114 20.2574 11.0104 20.2574 10.2017C20.2574 9.39962 20.395 8.7036 20.6701 8.11364C20.9451 7.52367 21.328 7.06794 21.8185 6.74645C22.309 6.42495 22.8758 6.2642 23.5188 6.2642C24.0159 6.2642 24.4087 6.34706 24.697 6.51278C24.9887 6.67519 25.2108 6.8608 25.3632 7.0696C25.519 7.27509 25.64 7.44413 25.7262 7.5767H25.8256V3.81818H26.9989V14H25.8654V12.8267H25.7262C25.64 12.9659 25.5174 13.1416 25.3583 13.3537C25.1992 13.5625 24.9721 13.7498 24.6772 13.9155C24.3822 14.0779 23.9894 14.1591 23.4989 14.1591ZM23.658 13.1051C24.1286 13.1051 24.5264 12.9825 24.8512 12.7372C25.176 12.4886 25.4229 12.1456 25.5919 11.7081C25.761 11.2673 25.8455 10.7585 25.8455 10.1818C25.8455 9.61174 25.7626 9.11293 25.5969 8.68537C25.4312 8.2545 25.1859 7.91974 24.8611 7.68111C24.5363 7.43916 24.1353 7.31818 23.658 7.31818C23.1608 7.31818 22.7465 7.44579 22.4151 7.70099C22.087 7.95289 21.84 8.29593 21.6743 8.73011C21.5119 9.16098 21.4307 9.64489 21.4307 10.1818C21.4307 10.7254 21.5136 11.2192 21.6793 11.6634C21.8483 12.1042 22.0969 12.4555 22.425 12.7173C22.7565 12.9759 23.1675 13.1051 23.658 13.1051ZM36.5692 6.36364V7.35795H32.6118V6.36364H36.5692ZM33.7652 4.53409H34.9385V11.8125C34.9385 12.1439 34.9866 12.3925 35.0827 12.5582C35.1821 12.7206 35.3081 12.83 35.4605 12.8864C35.6163 12.9394 35.7804 12.9659 35.9527 12.9659C36.082 12.9659 36.188 12.9593 36.2709 12.946C36.3538 12.9295 36.4201 12.9162 36.4698 12.9062L36.7084 13.9602C36.6289 13.9901 36.5178 14.0199 36.3753 14.0497C36.2328 14.0829 36.0522 14.0994 35.8334 14.0994C35.502 14.0994 35.1772 14.0282 34.859 13.8857C34.5441 13.7431 34.2823 13.526 34.0735 13.2344C33.868 12.9427 33.7652 12.5748 33.7652 12.1307V4.53409ZM40.5813 14.179C40.0974 14.179 39.6582 14.0878 39.2638 13.9055C38.8694 13.7199 38.5562 13.4531 38.3242 13.1051C38.0922 12.7538 37.9762 12.3295 37.9762 11.8324C37.9762 11.3949 38.0623 11.0402 38.2347 10.7685C38.407 10.4934 38.6374 10.2779 38.9257 10.1222C39.2141 9.96638 39.5323 9.85038 39.8803 9.77415C40.2316 9.6946 40.5846 9.63163 40.9392 9.58523C41.4032 9.52557 41.7794 9.48082 42.0678 9.45099C42.3594 9.41785 42.5716 9.36316 42.7041 9.28693C42.84 9.2107 42.908 9.07812 42.908 8.8892V8.84943C42.908 8.3589 42.7737 7.97775 42.5053 7.70597C42.2401 7.43419 41.8374 7.2983 41.2972 7.2983C40.7371 7.2983 40.2979 7.42093 39.9797 7.66619C39.6615 7.91146 39.4378 8.1733 39.3085 8.4517L38.1949 8.05398C38.3938 7.58996 38.6589 7.22869 38.9904 6.97017C39.3251 6.70833 39.6897 6.52604 40.0841 6.4233C40.4818 6.31723 40.8729 6.2642 41.2574 6.2642C41.5027 6.2642 41.7844 6.29403 42.1026 6.35369C42.4241 6.41004 42.734 6.5277 43.0323 6.70668C43.3339 6.88565 43.5841 7.15578 43.783 7.51705C43.9818 7.87831 44.0813 8.36222 44.0813 8.96875V14H42.908V12.9659H42.8483C42.7688 13.1316 42.6362 13.3089 42.4506 13.4979C42.265 13.6868 42.0181 13.8475 41.7098 13.9801C41.4016 14.1127 41.0254 14.179 40.5813 14.179ZM40.7603 13.125C41.2243 13.125 41.6154 13.0339 41.9335 12.8516C42.255 12.6693 42.497 12.4339 42.6594 12.1456C42.8251 11.8572 42.908 11.554 42.908 11.2358V10.1619C42.8583 10.2216 42.7489 10.2763 42.5799 10.326C42.4141 10.3724 42.2219 10.4138 42.0032 10.4503C41.7877 10.4834 41.5773 10.5133 41.3718 10.5398C41.1696 10.563 41.0055 10.5829 40.8796 10.5994C40.5746 10.6392 40.2896 10.7038 40.0245 10.7933C39.7626 10.8795 39.5505 11.0104 39.3881 11.1861C39.229 11.3584 39.1495 11.5937 39.1495 11.892C39.1495 12.2997 39.3003 12.608 39.6019 12.8168C39.9068 13.0223 40.2929 13.125 40.7603 13.125ZM49.3052 17.0227C48.7384 17.0227 48.2512 16.9498 47.8435 16.804C47.4359 16.6615 47.0961 16.4725 46.8244 16.2372C46.5559 16.0052 46.3421 15.7566 46.183 15.4915L47.1177 14.8352C47.2237 14.9744 47.358 15.1335 47.5204 15.3125C47.6828 15.4948 47.9048 15.6522 48.1866 15.7848C48.4716 15.9207 48.8445 15.9886 49.3052 15.9886C49.9217 15.9886 50.4304 15.8395 50.8315 15.5412C51.2325 15.2429 51.433 14.7756 51.433 14.1392V12.5881H51.3336C51.2474 12.7273 51.1248 12.8996 50.9657 13.1051C50.8099 13.3073 50.5845 13.4879 50.2896 13.647C49.9979 13.8028 49.6035 13.8807 49.1063 13.8807C48.4898 13.8807 47.9363 13.7348 47.4458 13.4432C46.9586 13.1515 46.5725 12.7273 46.2874 12.1705C46.0057 11.6136 45.8648 10.9375 45.8648 10.142C45.8648 9.35985 46.0024 8.67874 46.2775 8.09872C46.5526 7.51539 46.9354 7.06463 47.4259 6.74645C47.9164 6.42495 48.4832 6.2642 49.1262 6.2642C49.6234 6.2642 50.0178 6.34706 50.3094 6.51278C50.6044 6.67519 50.8298 6.8608 50.9856 7.0696C51.1447 7.27509 51.2673 7.44413 51.3535 7.5767H51.4728V6.36364H52.6063V14.2188C52.6063 14.875 52.4572 15.4086 52.1589 15.8196C51.8639 16.2339 51.4662 16.5372 50.9657 16.7294C50.4685 16.925 49.915 17.0227 49.3052 17.0227ZM49.2654 12.8267C49.736 12.8267 50.1338 12.719 50.4586 12.5036C50.7834 12.2881 51.0303 11.9782 51.1994 11.5739C51.3684 11.1695 51.4529 10.6856 51.4529 10.1222C51.4529 9.57197 51.37 9.08641 51.2043 8.66548C51.0386 8.24455 50.7933 7.91477 50.4685 7.67614C50.1437 7.4375 49.7427 7.31818 49.2654 7.31818C48.7682 7.31818 48.3539 7.44413 48.0225 7.69602C47.6944 7.94792 47.4475 8.28598 47.2817 8.71023C47.1193 9.13447 47.0381 9.60511 47.0381 10.1222C47.0381 10.6525 47.121 11.1214 47.2867 11.5291C47.4557 11.9335 47.7043 12.2517 48.0324 12.4837C48.3639 12.7124 48.7749 12.8267 49.2654 12.8267Z" fill="#37352F"/>
<path d="M-4 0H1944V343H-4V0Z" fill="#CCFFE2"/>
<path fill-rule="evenodd" clip-rule="evenodd" d="M1943.55 237.166V343H475.379C535.532 293.689 599.915 248.214 668.419 207.174C1082.63 -40.9782 1540.57 29.3675 1943.55 237.166Z" fill="#FFECEA"/>
<path fill-rule="evenodd" clip-rule="evenodd" d="M1373.87 169.08C1373.93 113.585 1408.92 58.5252 1467.21 46.2886C1518.96 35.4249 1554.8 83.747 1584.16 124.933C1611.76 163.654 1640.07 210.579 1611.16 248.223C1579.64 289.281 1518.29 294.69 1466.96 277.572C1415.17 260.296 1373.82 220.063 1373.87 169.08Z" fill="#0018A4"/>
<path fill-rule="evenodd" clip-rule="evenodd" d="M135.668 64.0355C166.613 63.0843 197.932 81.711 205.784 114.146C212.755 142.942 186.443 163.876 163.996 181.054C142.892 197.204 117.226 213.893 95.7253 198.369C72.2753 181.438 68.1762 147.165 76.8156 118.11C85.5343 88.7876 107.239 64.9093 135.668 64.0355Z" fill="white"/>
<rect x="-4" width="1944" height="100" fill="#0018A4"/>
<path d="M-35.566 55.522L-38.19 62H-38.846L-45.857 44.698L-48.891 62H-49.547L-46.308 43.55L-49.957 34.448L-54.795 62H-55.451L-50.408 33.3H-49.752L-46.103 42.402L-44.504 33.3H-43.848L-35.566 53.882L-27.284 33.3H-26.628L-25.029 42.361L-21.38 33.3H-20.724L-15.681 62H-16.337L-21.175 34.448L-24.824 43.509L-21.585 62H-22.241L-25.275 44.616L-32.286 62H-32.942L-35.566 55.522ZM-32.614 61.18L-25.48 43.468L-27.079 34.448L-35.238 54.702L-32.614 61.18ZM-35.894 54.702L-44.053 34.448L-45.652 43.55L-38.518 61.18L-35.894 54.702ZM-3.09108 62.492C-9.36408 62.492 -14.4481 57.408 -14.4481 51.135C-14.4481 44.862 -9.36408 39.778 -3.09108 39.778C3.18192 39.778 8.26592 44.862 8.26592 51.135C8.26592 57.408 3.18192 62.492 -3.09108 62.492ZM-3.09108 61.836C2.81292 61.836 7.60992 57.039 7.60992 51.135C7.60992 45.231 2.81292 40.434 -3.09108 40.434C-8.99508 40.434 -13.7921 45.231 -13.7921 51.135C-13.7921 57.039 -8.99508 61.836 -3.09108 61.836ZM-3.09108 56.916C-6.28908 56.916 -8.87208 54.333 -8.87208 51.135C-8.87208 47.937 -6.28908 45.354 -3.09108 45.354C0.106919 45.354 2.68992 47.937 2.68992 51.135C2.68992 54.333 0.106919 56.916 -3.09108 56.916ZM-3.09108 56.26C-0.262081 56.26 2.03392 53.964 2.03392 51.135C2.03392 48.306 -0.262081 46.01 -3.09108 46.01C-5.92008 46.01 -8.21608 48.306 -8.21608 51.135C-8.21608 53.964 -5.92008 56.26 -3.09108 56.26ZM22.3027 61.016L29.8467 40.27H30.5847L22.6717 62H21.9337L19.3507 54.907L16.7677 62H16.0297L8.11665 40.27H8.85465L16.3987 61.016L18.9817 53.923L14.0207 40.27H14.7587L19.3507 52.898L23.9427 40.27H24.6807L19.7197 53.882L22.3027 61.016ZM32.7868 62V40.27H33.4428V62H32.7868ZM39.0188 40.27V62H38.3628V40.27H39.0188ZM38.3628 38.138V31.25H39.0188V38.138H38.3628ZM33.4428 31.25V38.138H32.7868V31.25H33.4428ZM41.967 51.135C41.967 44.862 47.051 39.778 53.324 39.778C58.326 39.778 62.549 42.976 64.066 47.486L50.741 55.563C51.52 56.014 52.381 56.26 53.324 56.26C55.374 56.26 57.137 55.03 57.957 53.308L58.572 53.595C57.67 55.563 55.661 56.916 53.324 56.916C52.135 56.916 51.028 56.547 50.126 55.932L45.698 58.638C47.625 60.606 50.331 61.836 53.324 61.836C57.588 61.836 61.319 59.294 63.041 55.645L63.615 55.932C61.811 59.827 57.875 62.492 53.324 62.492C47.051 62.492 41.967 57.408 41.967 51.135ZM42.623 51.135C42.623 52.324 42.828 53.431 43.156 54.497L47.584 51.791C47.543 51.586 47.543 51.34 47.543 51.135C47.543 47.937 50.126 45.354 53.324 45.354C54.513 45.354 55.661 45.723 56.563 46.338L60.95 43.673C59.023 41.664 56.317 40.434 53.324 40.434C47.42 40.434 42.623 45.231 42.623 51.135ZM43.402 55.112C43.853 56.219 44.468 57.244 45.247 58.146L49.552 55.522C48.65 54.743 47.994 53.677 47.707 52.488L43.402 55.112ZM48.199 51.135V51.422L55.948 46.707C55.169 46.256 54.267 46.01 53.324 46.01C50.495 46.01 48.199 48.306 48.199 51.135ZM48.281 52.16C48.527 53.349 49.224 54.415 50.167 55.153L58.367 50.151C58.121 48.962 57.465 47.896 56.522 47.117L48.281 52.16ZM57.137 46.789C58.039 47.568 58.695 48.593 58.941 49.823L63.287 47.158C62.836 46.051 62.18 45.067 61.442 44.165L57.137 46.789ZM65.0753 46.953C65.0753 42.976 68.2733 39.778 72.2503 39.778C75.2023 39.778 77.7443 41.582 78.8513 44.124L78.2363 44.411C77.2523 42.074 74.9153 40.434 72.2503 40.434C68.6423 40.434 65.7313 43.345 65.7313 46.953C65.7313 50.028 67.8223 52.57 70.6923 53.308L72.4963 53.759C73.1933 53.923 73.6853 54.579 73.6853 55.317C73.6853 56.219 72.9883 56.916 72.0863 56.916C71.3893 56.916 70.8153 56.506 70.5693 55.85L71.1843 55.604C71.3073 55.973 71.6353 56.26 72.0863 56.26C72.6193 56.26 73.0293 55.85 73.0293 55.317C73.0293 54.866 72.7833 54.497 72.3323 54.374L70.4873 53.923C67.3713 53.144 65.0753 50.315 65.0753 46.953ZM65.4853 58.187L66.1003 57.9C67.0843 60.237 69.3803 61.836 72.0863 61.836C75.6943 61.836 78.6053 58.925 78.6053 55.317C78.6053 52.242 76.5143 49.7 73.6443 48.962L71.8403 48.511C71.1023 48.306 70.6513 47.691 70.6513 46.953C70.6513 46.051 71.3483 45.354 72.2503 45.354C72.9473 45.354 73.5213 45.805 73.7263 46.42L73.1523 46.666C73.0293 46.297 72.6603 46.01 72.2503 46.01C71.7173 46.01 71.3073 46.42 71.3073 46.953C71.3073 47.404 71.5533 47.773 72.0043 47.896L73.8493 48.347C77.0063 49.126 79.2613 51.955 79.2613 55.317C79.2613 59.294 76.0633 62.492 72.0863 62.492C69.1343 62.492 66.5923 60.729 65.4853 58.187ZM109.616 55.522L106.992 62H106.336L99.3247 44.698L96.2907 62H95.6347L98.8737 43.55L95.2247 34.448L90.3867 62H89.7307L94.7737 33.3H95.4297L99.0787 42.402L100.678 33.3H101.334L109.616 53.882L117.898 33.3H118.554L120.153 42.361L123.802 33.3H124.458L129.501 62H128.845L124.007 34.448L120.358 43.509L123.597 62H122.941L119.907 44.616L112.896 62H112.24L109.616 55.522ZM112.568 61.18L119.702 43.468L118.103 34.448L109.944 54.702L112.568 61.18ZM109.288 54.702L101.129 34.448L99.5297 43.55L106.664 61.18L109.288 54.702ZM142.091 62.492C135.818 62.492 130.734 57.408 130.734 51.135C130.734 44.862 135.818 39.778 142.091 39.778C148.364 39.778 153.448 44.862 153.448 51.135C153.448 57.408 148.364 62.492 142.091 62.492ZM142.091 61.836C147.995 61.836 152.792 57.039 152.792 51.135C152.792 45.231 147.995 40.434 142.091 40.434C136.187 40.434 131.39 45.231 131.39 51.135C131.39 57.039 136.187 61.836 142.091 61.836ZM142.091 56.916C138.893 56.916 136.31 54.333 136.31 51.135C136.31 47.937 138.893 45.354 142.091 45.354C145.289 45.354 147.872 47.937 147.872 51.135C147.872 54.333 145.289 56.916 142.091 56.916ZM142.091 56.26C144.92 56.26 147.216 53.964 147.216 51.135C147.216 48.306 144.92 46.01 142.091 46.01C139.262 46.01 136.966 48.306 136.966 51.135C136.966 53.964 139.262 56.26 142.091 56.26ZM167.484 61.016L175.028 40.27H175.766L167.853 62H167.115L164.532 54.907L161.949 62H161.211L153.298 40.27H154.036L161.58 61.016L164.163 53.923L159.202 40.27H159.94L164.532 52.898L169.124 40.27H169.862L164.901 53.882L167.484 61.016ZM177.968 62V40.27H178.624V62H177.968ZM184.2 40.27V62H183.544V40.27H184.2ZM183.544 38.138V31.25H184.2V38.138H183.544ZM178.624 31.25V38.138H177.968V31.25H178.624ZM187.149 51.135C187.149 44.862 192.233 39.778 198.506 39.778C203.508 39.778 207.731 42.976 209.248 47.486L195.923 55.563C196.702 56.014 197.563 56.26 198.506 56.26C200.556 56.26 202.319 55.03 203.139 53.308L203.754 53.595C202.852 55.563 200.843 56.916 198.506 56.916C197.317 56.916 196.21 56.547 195.308 55.932L190.88 58.638C192.807 60.606 195.513 61.836 198.506 61.836C202.77 61.836 206.501 59.294 208.223 55.645L208.797 55.932C206.993 59.827 203.057 62.492 198.506 62.492C192.233 62.492 187.149 57.408 187.149 51.135ZM187.805 51.135C187.805 52.324 188.01 53.431 188.338 54.497L192.766 51.791C192.725 51.586 192.725 51.34 192.725 51.135C192.725 47.937 195.308 45.354 198.506 45.354C199.695 45.354 200.843 45.723 201.745 46.338L206.132 43.673C204.205 41.664 201.499 40.434 198.506 40.434C192.602 40.434 187.805 45.231 187.805 51.135ZM188.584 55.112C189.035 56.219 189.65 57.244 190.429 58.146L194.734 55.522C193.832 54.743 193.176 53.677 192.889 52.488L188.584 55.112ZM193.381 51.135V51.422L201.13 46.707C200.351 46.256 199.449 46.01 198.506 46.01C195.677 46.01 193.381 48.306 193.381 51.135ZM193.463 52.16C193.709 53.349 194.406 54.415 195.349 55.153L203.549 50.151C203.303 48.962 202.647 47.896 201.704 47.117L193.463 52.16ZM202.319 46.789C203.221 47.568 203.877 48.593 204.123 49.823L208.469 47.158C208.018 46.051 207.362 45.067 206.624 44.165L202.319 46.789ZM210.257 46.953C210.257 42.976 213.455 39.778 217.432 39.778C220.384 39.778 222.926 41.582 224.033 44.124L223.418 44.411C222.434 42.074 220.097 40.434 217.432 40.434C213.824 40.434 210.913 43.345 210.913 46.953C210.913 50.028 213.004 52.57 215.874 53.308L217.678 53.759C218.375 53.923 218.867 54.579 218.867 55.317C218.867 56.219 218.17 56.916 217.268 56.916C216.571 56.916 215.997 56.506 215.751 55.85L216.366 55.604C216.489 55.973 216.817 56.26 217.268 56.26C217.801 56.26 218.211 55.85 218.211 55.317C218.211 54.866 217.965 54.497 217.514 54.374L215.669 53.923C212.553 53.144 210.257 50.315 210.257 46.953ZM210.667 58.187L211.282 57.9C212.266 60.237 214.562 61.836 217.268 61.836C220.876 61.836 223.787 58.925 223.787 55.317C223.787 52.242 221.696 49.7 218.826 48.962L217.022 48.511C216.284 48.306 215.833 47.691 215.833 46.953C215.833 46.051 216.53 45.354 217.432 45.354C218.129 45.354 218.703 45.805 218.908 46.42L218.334 46.666C218.211 46.297 217.842 46.01 217.432 46.01C216.899 46.01 216.489 46.42 216.489 46.953C216.489 47.404 216.735 47.773 217.186 47.896L219.031 48.347C222.188 49.126 224.443 51.955 224.443 55.317C224.443 59.294 221.245 62.492 217.268 62.492C214.316 62.492 211.774 60.729 210.667 58.187ZM254.797 55.522L252.173 62H251.517L244.506 44.698L241.472 62H240.816L244.055 43.55L240.406 34.448L235.568 62H234.912L239.955 33.3H240.611L244.26 42.402L245.859 33.3H246.515L254.797 53.882L263.079 33.3H263.735L265.334 42.361L268.983 33.3H269.639L274.682 62H274.026L269.188 34.448L265.539 43.509L268.778 62H268.122L265.088 44.616L258.077 62H257.421L254.797 55.522ZM257.749 61.18L264.883 43.468L263.284 34.448L255.125 54.702L257.749 61.18ZM254.469 54.702L246.31 34.448L244.711 43.55L251.845 61.18L254.469 54.702ZM287.272 62.492C280.999 62.492 275.915 57.408 275.915 51.135C275.915 44.862 280.999 39.778 287.272 39.778C293.545 39.778 298.629 44.862 298.629 51.135C298.629 57.408 293.545 62.492 287.272 62.492ZM287.272 61.836C293.176 61.836 297.973 57.039 297.973 51.135C297.973 45.231 293.176 40.434 287.272 40.434C281.368 40.434 276.571 45.231 276.571 51.135C276.571 57.039 281.368 61.836 287.272 61.836ZM287.272 56.916C284.074 56.916 281.491 54.333 281.491 51.135C281.491 47.937 284.074 45.354 287.272 45.354C290.47 45.354 293.053 47.937 293.053 51.135C293.053 54.333 290.47 56.916 287.272 56.916ZM287.272 56.26C290.101 56.26 292.397 53.964 292.397 51.135C292.397 48.306 290.101 46.01 287.272 46.01C284.443 46.01 282.147 48.306 282.147 51.135C282.147 53.964 284.443 56.26 287.272 56.26ZM312.666 61.016L320.21 40.27H320.948L313.035 62H312.297L309.714 54.907L307.131 62H306.393L298.48 40.27H299.218L306.762 61.016L309.345 53.923L304.384 40.27H305.122L309.714 52.898L314.306 40.27H315.044L310.083 53.882L312.666 61.016ZM323.15 62V40.27H323.806V62H323.15ZM329.382 40.27V62H328.726V40.27H329.382ZM328.726 38.138V31.25H329.382V38.138H328.726ZM323.806 31.25V38.138H323.15V31.25H323.806ZM332.33 51.135C332.33 44.862 337.414 39.778 343.687 39.778C348.689 39.778 352.912 42.976 354.429 47.486L341.104 55.563C341.883 56.014 342.744 56.26 343.687 56.26C345.737 56.26 347.5 55.03 348.32 53.308L348.935 53.595C348.033 55.563 346.024 56.916 343.687 56.916C342.498 56.916 341.391 56.547 340.489 55.932L336.061 58.638C337.988 60.606 340.694 61.836 343.687 61.836C347.951 61.836 351.682 59.294 353.404 55.645L353.978 55.932C352.174 59.827 348.238 62.492 343.687 62.492C337.414 62.492 332.33 57.408 332.33 51.135ZM332.986 51.135C332.986 52.324 333.191 53.431 333.519 54.497L337.947 51.791C337.906 51.586 337.906 51.34 337.906 51.135C337.906 47.937 340.489 45.354 343.687 45.354C344.876 45.354 346.024 45.723 346.926 46.338L351.313 43.673C349.386 41.664 346.68 40.434 343.687 40.434C337.783 40.434 332.986 45.231 332.986 51.135ZM333.765 55.112C334.216 56.219 334.831 57.244 335.61 58.146L339.915 55.522C339.013 54.743 338.357 53.677 338.07 52.488L333.765 55.112ZM338.562 51.135V51.422L346.311 46.707C345.532 46.256 344.63 46.01 343.687 46.01C340.858 46.01 338.562 48.306 338.562 51.135ZM338.644 52.16C338.89 53.349 339.587 54.415 340.53 55.153L348.73 50.151C348.484 48.962 347.828 47.896 346.885 47.117L338.644 52.16ZM347.5 46.789C348.402 47.568 349.058 48.593 349.304 49.823L353.65 47.158C353.199 46.051 352.543 45.067 351.805 44.165L347.5 46.789ZM355.439 46.953C355.439 42.976 358.637 39.778 362.614 39.778C365.566 39.778 368.108 41.582 369.215 44.124L368.6 44.411C367.616 42.074 365.279 40.434 362.614 40.434C359.006 40.434 356.095 43.345 356.095 46.953C356.095 50.028 358.186 52.57 361.056 53.308L362.86 53.759C363.557 53.923 364.049 54.579 364.049 55.317C364.049 56.219 363.352 56.916 362.45 56.916C361.753 56.916 361.179 56.506 360.933 55.85L361.548 55.604C361.671 55.973 361.999 56.26 362.45 56.26C362.983 56.26 363.393 55.85 363.393 55.317C363.393 54.866 363.147 54.497 362.696 54.374L360.851 53.923C357.735 53.144 355.439 50.315 355.439 46.953ZM355.849 58.187L356.464 57.9C357.448 60.237 359.744 61.836 362.45 61.836C366.058 61.836 368.969 58.925 368.969 55.317C368.969 52.242 366.878 49.7 364.008 48.962L362.204 48.511C361.466 48.306 361.015 47.691 361.015 46.953C361.015 46.051 361.712 45.354 362.614 45.354C363.311 45.354 363.885 45.805 364.09 46.42L363.516 46.666C363.393 46.297 363.024 46.01 362.614 46.01C362.081 46.01 361.671 46.42 361.671 46.953C361.671 47.404 361.917 47.773 362.368 47.896L364.213 48.347C367.37 49.126 369.625 51.955 369.625 55.317C369.625 59.294 366.427 62.492 362.45 62.492C359.498 62.492 356.956 60.729 355.849 58.187ZM399.979 55.522L397.355 62H396.699L389.688 44.698L386.654 62H385.998L389.237 43.55L385.588 34.448L380.75 62H380.094L385.137 33.3H385.793L389.442 42.402L391.041 33.3H391.697L399.979 53.882L408.261 33.3H408.917L410.516 42.361L414.165 33.3H414.821L419.864 62H419.208L414.37 34.448L410.721 43.509L413.96 62H413.304L410.27 44.616L403.259 62H402.603L399.979 55.522ZM402.931 61.18L410.065 43.468L408.466 34.448L400.307 54.702L402.931 61.18ZM399.651 54.702L391.492 34.448L389.893 43.55L397.027 61.18L399.651 54.702ZM432.454 62.492C426.181 62.492 421.097 57.408 421.097 51.135C421.097 44.862 426.181 39.778 432.454 39.778C438.727 39.778 443.811 44.862 443.811 51.135C443.811 57.408 438.727 62.492 432.454 62.492ZM432.454 61.836C438.358 61.836 443.155 57.039 443.155 51.135C443.155 45.231 438.358 40.434 432.454 40.434C426.55 40.434 421.753 45.231 421.753 51.135C421.753 57.039 426.55 61.836 432.454 61.836ZM432.454 56.916C429.256 56.916 426.673 54.333 426.673 51.135C426.673 47.937 429.256 45.354 432.454 45.354C435.652 45.354 438.235 47.937 438.235 51.135C438.235 54.333 435.652 56.916 432.454 56.916ZM432.454 56.26C435.283 56.26 437.579 53.964 437.579 51.135C437.579 48.306 435.283 46.01 432.454 46.01C429.625 46.01 427.329 48.306 427.329 51.135C427.329 53.964 429.625 56.26 432.454 56.26ZM457.848 61.016L465.392 40.27H466.13L458.217 62H457.479L454.896 54.907L452.313 62H451.575L443.662 40.27H444.4L451.944 61.016L454.527 53.923L449.566 40.27H450.304L454.896 52.898L459.488 40.27H460.226L455.265 53.882L457.848 61.016ZM468.332 62V40.27H468.988V62H468.332ZM474.564 40.27V62H473.908V40.27H474.564ZM473.908 38.138V31.25H474.564V38.138H473.908ZM468.988 31.25V38.138H468.332V31.25H468.988ZM477.512 51.135C477.512 44.862 482.596 39.778 488.869 39.778C493.871 39.778 498.094 42.976 499.611 47.486L486.286 55.563C487.065 56.014 487.926 56.26 488.869 56.26C490.919 56.26 492.682 55.03 493.502 53.308L494.117 53.595C493.215 55.563 491.206 56.916 488.869 56.916C487.68 56.916 486.573 56.547 485.671 55.932L481.243 58.638C483.17 60.606 485.876 61.836 488.869 61.836C493.133 61.836 496.864 59.294 498.586 55.645L499.16 55.932C497.356 59.827 493.42 62.492 488.869 62.492C482.596 62.492 477.512 57.408 477.512 51.135ZM478.168 51.135C478.168 52.324 478.373 53.431 478.701 54.497L483.129 51.791C483.088 51.586 483.088 51.34 483.088 51.135C483.088 47.937 485.671 45.354 488.869 45.354C490.058 45.354 491.206 45.723 492.108 46.338L496.495 43.673C494.568 41.664 491.862 40.434 488.869 40.434C482.965 40.434 478.168 45.231 478.168 51.135ZM478.947 55.112C479.398 56.219 480.013 57.244 480.792 58.146L485.097 55.522C484.195 54.743 483.539 53.677 483.252 52.488L478.947 55.112ZM483.744 51.135V51.422L491.493 46.707C490.714 46.256 489.812 46.01 488.869 46.01C486.04 46.01 483.744 48.306 483.744 51.135ZM483.826 52.16C484.072 53.349 484.769 54.415 485.712 55.153L493.912 50.151C493.666 48.962 493.01 47.896 492.067 47.117L483.826 52.16ZM492.682 46.789C493.584 47.568 494.24 48.593 494.486 49.823L498.832 47.158C498.381 46.051 497.725 45.067 496.987 44.165L492.682 46.789ZM500.62 46.953C500.62 42.976 503.818 39.778 507.795 39.778C510.747 39.778 513.289 41.582 514.396 44.124L513.781 44.411C512.797 42.074 510.46 40.434 507.795 40.434C504.187 40.434 501.276 43.345 501.276 46.953C501.276 50.028 503.367 52.57 506.237 53.308L508.041 53.759C508.738 53.923 509.23 54.579 509.23 55.317C509.23 56.219 508.533 56.916 507.631 56.916C506.934 56.916 506.36 56.506 506.114 55.85L506.729 55.604C506.852 55.973 507.18 56.26 507.631 56.26C508.164 56.26 508.574 55.85 508.574 55.317C508.574 54.866 508.328 54.497 507.877 54.374L506.032 53.923C502.916 53.144 500.62 50.315 500.62 46.953ZM501.03 58.187L501.645 57.9C502.629 60.237 504.925 61.836 507.631 61.836C511.239 61.836 514.15 58.925 514.15 55.317C514.15 52.242 512.059 49.7 509.189 48.962L507.385 48.511C506.647 48.306 506.196 47.691 506.196 46.953C506.196 46.051 506.893 45.354 507.795 45.354C508.492 45.354 509.066 45.805 509.271 46.42L508.697 46.666C508.574 46.297 508.205 46.01 507.795 46.01C507.262 46.01 506.852 46.42 506.852 46.953C506.852 47.404 507.098 47.773 507.549 47.896L509.394 48.347C512.551 49.126 514.806 51.955 514.806 55.317C514.806 59.294 511.608 62.492 507.631 62.492C504.679 62.492 502.137 60.729 501.03 58.187ZM545.161 55.522L542.537 62H541.881L534.87 44.698L531.836 62H531.18L534.419 43.55L530.77 34.448L525.932 62H525.276L530.319 33.3H530.975L534.624 42.402L536.223 33.3H536.879L545.161 53.882L553.443 33.3H554.099L555.698 42.361L559.347 33.3H560.003L565.046 62H564.39L559.552 34.448L555.903 43.509L559.142 62H558.486L555.452 44.616L548.441 62H547.785L545.161 55.522ZM548.113 61.18L555.247 43.468L553.648 34.448L545.489 54.702L548.113 61.18ZM544.833 54.702L536.674 34.448L535.075 43.55L542.209 61.18L544.833 54.702ZM577.635 62.492C571.362 62.492 566.278 57.408 566.278 51.135C566.278 44.862 571.362 39.778 577.635 39.778C583.908 39.778 588.992 44.862 588.992 51.135C588.992 57.408 583.908 62.492 577.635 62.492ZM577.635 61.836C583.539 61.836 588.336 57.039 588.336 51.135C588.336 45.231 583.539 40.434 577.635 40.434C571.731 40.434 566.934 45.231 566.934 51.135C566.934 57.039 571.731 61.836 577.635 61.836ZM577.635 56.916C574.437 56.916 571.854 54.333 571.854 51.135C571.854 47.937 574.437 45.354 577.635 45.354C580.833 45.354 583.416 47.937 583.416 51.135C583.416 54.333 580.833 56.916 577.635 56.916ZM577.635 56.26C580.464 56.26 582.76 53.964 582.76 51.135C582.76 48.306 580.464 46.01 577.635 46.01C574.806 46.01 572.51 48.306 572.51 51.135C572.51 53.964 574.806 56.26 577.635 56.26ZM603.029 61.016L610.573 40.27H611.311L603.398 62H602.66L600.077 54.907L597.494 62H596.756L588.843 40.27H589.581L597.125 61.016L599.708 53.923L594.747 40.27H595.485L600.077 52.898L604.669 40.27H605.407L600.446 53.882L603.029 61.016ZM613.513 62V40.27H614.169V62H613.513ZM619.745 40.27V62H619.089V40.27H619.745ZM619.089 38.138V31.25H619.745V38.138H619.089ZM614.169 31.25V38.138H613.513V31.25H614.169ZM622.694 51.135C622.694 44.862 627.778 39.778 634.051 39.778C639.053 39.778 643.276 42.976 644.793 47.486L631.468 55.563C632.247 56.014 633.108 56.26 634.051 56.26C636.101 56.26 637.864 55.03 638.684 53.308L639.299 53.595C638.397 55.563 636.388 56.916 634.051 56.916C632.862 56.916 631.755 56.547 630.853 55.932L626.425 58.638C628.352 60.606 631.058 61.836 634.051 61.836C638.315 61.836 642.046 59.294 643.768 55.645L644.342 55.932C642.538 59.827 638.602 62.492 634.051 62.492C627.778 62.492 622.694 57.408 622.694 51.135ZM623.35 51.135C623.35 52.324 623.555 53.431 623.883 54.497L628.311 51.791C628.27 51.586 628.27 51.34 628.27 51.135C628.27 47.937 630.853 45.354 634.051 45.354C635.24 45.354 636.388 45.723 637.29 46.338L641.677 43.673C639.75 41.664 637.044 40.434 634.051 40.434C628.147 40.434 623.35 45.231 623.35 51.135ZM624.129 55.112C624.58 56.219 625.195 57.244 625.974 58.146L630.279 55.522C629.377 54.743 628.721 53.677 628.434 52.488L624.129 55.112ZM628.926 51.135V51.422L636.675 46.707C635.896 46.256 634.994 46.01 634.051 46.01C631.222 46.01 628.926 48.306 628.926 51.135ZM629.008 52.16C629.254 53.349 629.951 54.415 630.894 55.153L639.094 50.151C638.848 48.962 638.192 47.896 637.249 47.117L629.008 52.16ZM637.864 46.789C638.766 47.568 639.422 48.593 639.668 49.823L644.014 47.158C643.563 46.051 642.907 45.067 642.169 44.165L637.864 46.789ZM645.802 46.953C645.802 42.976 649 39.778 652.977 39.778C655.929 39.778 658.471 41.582 659.578 44.124L658.963 44.411C657.979 42.074 655.642 40.434 652.977 40.434C649.369 40.434 646.458 43.345 646.458 46.953C646.458 50.028 648.549 52.57 651.419 53.308L653.223 53.759C653.92 53.923 654.412 54.579 654.412 55.317C654.412 56.219 653.715 56.916 652.813 56.916C652.116 56.916 651.542 56.506 651.296 55.85L651.911 55.604C652.034 55.973 652.362 56.26 652.813 56.26C653.346 56.26 653.756 55.85 653.756 55.317C653.756 54.866 653.51 54.497 653.059 54.374L651.214 53.923C648.098 53.144 645.802 50.315 645.802 46.953ZM646.212 58.187L646.827 57.9C647.811 60.237 650.107 61.836 652.813 61.836C656.421 61.836 659.332 58.925 659.332 55.317C659.332 52.242 657.241 49.7 654.371 48.962L652.567 48.511C651.829 48.306 651.378 47.691 651.378 46.953C651.378 46.051 652.075 45.354 652.977 45.354C653.674 45.354 654.248 45.805 654.453 46.42L653.879 46.666C653.756 46.297 653.387 46.01 652.977 46.01C652.444 46.01 652.034 46.42 652.034 46.953C652.034 47.404 652.28 47.773 652.731 47.896L654.576 48.347C657.733 49.126 659.988 51.955 659.988 55.317C659.988 59.294 656.79 62.492 652.813 62.492C649.861 62.492 647.319 60.729 646.212 58.187ZM690.342 55.522L687.718 62H687.062L680.051 44.698L677.017 62H676.361L679.6 43.55L675.951 34.448L671.113 62H670.457L675.5 33.3H676.156L679.805 42.402L681.404 33.3H682.06L690.342 53.882L698.624 33.3H699.28L700.879 42.361L704.528 33.3H705.184L710.227 62H709.571L704.733 34.448L701.084 43.509L704.323 62H703.667L700.633 44.616L693.622 62H692.966L690.342 55.522ZM693.294 61.18L700.428 43.468L698.829 34.448L690.67 54.702L693.294 61.18ZM690.014 54.702L681.855 34.448L680.256 43.55L687.39 61.18L690.014 54.702ZM722.817 62.492C716.544 62.492 711.46 57.408 711.46 51.135C711.46 44.862 716.544 39.778 722.817 39.778C729.09 39.778 734.174 44.862 734.174 51.135C734.174 57.408 729.09 62.492 722.817 62.492ZM722.817 61.836C728.721 61.836 733.518 57.039 733.518 51.135C733.518 45.231 728.721 40.434 722.817 40.434C716.913 40.434 712.116 45.231 712.116 51.135C712.116 57.039 716.913 61.836 722.817 61.836ZM722.817 56.916C719.619 56.916 717.036 54.333 717.036 51.135C717.036 47.937 719.619 45.354 722.817 45.354C726.015 45.354 728.598 47.937 728.598 51.135C728.598 54.333 726.015 56.916 722.817 56.916ZM722.817 56.26C725.646 56.26 727.942 53.964 727.942 51.135C727.942 48.306 725.646 46.01 722.817 46.01C719.988 46.01 717.692 48.306 717.692 51.135C717.692 53.964 719.988 56.26 722.817 56.26ZM748.211 61.016L755.755 40.27H756.493L748.58 62H747.842L745.259 54.907L742.676 62H741.938L734.025 40.27H734.763L742.307 61.016L744.89 53.923L739.929 40.27H740.667L745.259 52.898L749.851 40.27H750.589L745.628 53.882L748.211 61.016ZM758.695 62V40.27H759.351V62H758.695ZM764.927 40.27V62H764.271V40.27H764.927ZM764.271 38.138V31.25H764.927V38.138H764.271ZM759.351 31.25V38.138H758.695V31.25H759.351ZM767.875 51.135C767.875 44.862 772.959 39.778 779.232 39.778C784.234 39.778 788.457 42.976 789.974 47.486L776.649 55.563C777.428 56.014 778.289 56.26 779.232 56.26C781.282 56.26 783.045 55.03 783.865 53.308L784.48 53.595C783.578 55.563 781.569 56.916 779.232 56.916C778.043 56.916 776.936 56.547 776.034 55.932L771.606 58.638C773.533 60.606 776.239 61.836 779.232 61.836C783.496 61.836 787.227 59.294 788.949 55.645L789.523 55.932C787.719 59.827 783.783 62.492 779.232 62.492C772.959 62.492 767.875 57.408 767.875 51.135ZM768.531 51.135C768.531 52.324 768.736 53.431 769.064 54.497L773.492 51.791C773.451 51.586 773.451 51.34 773.451 51.135C773.451 47.937 776.034 45.354 779.232 45.354C780.421 45.354 781.569 45.723 782.471 46.338L786.858 43.673C784.931 41.664 782.225 40.434 779.232 40.434C773.328 40.434 768.531 45.231 768.531 51.135ZM769.31 55.112C769.761 56.219 770.376 57.244 771.155 58.146L775.46 55.522C774.558 54.743 773.902 53.677 773.615 52.488L769.31 55.112ZM774.107 51.135V51.422L781.856 46.707C781.077 46.256 780.175 46.01 779.232 46.01C776.403 46.01 774.107 48.306 774.107 51.135ZM774.189 52.16C774.435 53.349 775.132 54.415 776.075 55.153L784.275 50.151C784.029 48.962 783.373 47.896 782.43 47.117L774.189 52.16ZM783.045 46.789C783.947 47.568 784.603 48.593 784.849 49.823L789.195 47.158C788.744 46.051 788.088 45.067 787.35 44.165L783.045 46.789ZM790.983 46.953C790.983 42.976 794.181 39.778 798.158 39.778C801.11 39.778 803.652 41.582 804.759 44.124L804.144 44.411C803.16 42.074 800.823 40.434 798.158 40.434C794.55 40.434 791.639 43.345 791.639 46.953C791.639 50.028 793.73 52.57 796.6 53.308L798.404 53.759C799.101 53.923 799.593 54.579 799.593 55.317C799.593 56.219 798.896 56.916 797.994 56.916C797.297 56.916 796.723 56.506 796.477 55.85L797.092 55.604C797.215 55.973 797.543 56.26 797.994 56.26C798.527 56.26 798.937 55.85 798.937 55.317C798.937 54.866 798.691 54.497 798.24 54.374L796.395 53.923C793.279 53.144 790.983 50.315 790.983 46.953ZM791.393 58.187L792.008 57.9C792.992 60.237 795.288 61.836 797.994 61.836C801.602 61.836 804.513 58.925 804.513 55.317C804.513 52.242 802.422 49.7 799.552 48.962L797.748 48.511C797.01 48.306 796.559 47.691 796.559 46.953C796.559 46.051 797.256 45.354 798.158 45.354C798.855 45.354 799.429 45.805 799.634 46.42L799.06 46.666C798.937 46.297 798.568 46.01 798.158 46.01C797.625 46.01 797.215 46.42 797.215 46.953C797.215 47.404 797.461 47.773 797.912 47.896L799.757 48.347C802.914 49.126 805.169 51.955 805.169 55.317C805.169 59.294 801.971 62.492 797.994 62.492C795.042 62.492 792.5 60.729 791.393 58.187ZM835.524 55.522L832.9 62H832.244L825.233 44.698L822.199 62H821.543L824.782 43.55L821.133 34.448L816.295 62H815.639L820.682 33.3H821.338L824.987 42.402L826.586 33.3H827.242L835.524 53.882L843.806 33.3H844.462L846.061 42.361L849.71 33.3H850.366L855.409 62H854.753L849.915 34.448L846.266 43.509L849.505 62H848.849L845.815 44.616L838.804 62H838.148L835.524 55.522ZM838.476 61.18L845.61 43.468L844.011 34.448L835.852 54.702L838.476 61.18ZM835.196 54.702L827.037 34.448L825.438 43.55L832.572 61.18L835.196 54.702ZM867.999 62.492C861.726 62.492 856.642 57.408 856.642 51.135C856.642 44.862 861.726 39.778 867.999 39.778C874.272 39.778 879.356 44.862 879.356 51.135C879.356 57.408 874.272 62.492 867.999 62.492ZM867.999 61.836C873.903 61.836 878.7 57.039 878.7 51.135C878.7 45.231 873.903 40.434 867.999 40.434C862.095 40.434 857.298 45.231 857.298 51.135C857.298 57.039 862.095 61.836 867.999 61.836ZM867.999 56.916C864.801 56.916 862.218 54.333 862.218 51.135C862.218 47.937 864.801 45.354 867.999 45.354C871.197 45.354 873.78 47.937 873.78 51.135C873.78 54.333 871.197 56.916 867.999 56.916ZM867.999 56.26C870.828 56.26 873.124 53.964 873.124 51.135C873.124 48.306 870.828 46.01 867.999 46.01C865.17 46.01 862.874 48.306 862.874 51.135C862.874 53.964 865.17 56.26 867.999 56.26ZM893.392 61.016L900.936 40.27H901.674L893.761 62H893.023L890.44 54.907L887.857 62H887.119L879.206 40.27H879.944L887.488 61.016L890.071 53.923L885.11 40.27H885.848L890.44 52.898L895.032 40.27H895.77L890.809 53.882L893.392 61.016ZM903.877 62V40.27H904.533V62H903.877ZM910.109 40.27V62H909.453V40.27H910.109ZM909.453 38.138V31.25H910.109V38.138H909.453ZM904.533 31.25V38.138H903.877V31.25H904.533ZM913.057 51.135C913.057 44.862 918.141 39.778 924.414 39.778C929.416 39.778 933.639 42.976 935.156 47.486L921.831 55.563C922.61 56.014 923.471 56.26 924.414 56.26C926.464 56.26 928.227 55.03 929.047 53.308L929.662 53.595C928.76 55.563 926.751 56.916 924.414 56.916C923.225 56.916 922.118 56.547 921.216 55.932L916.788 58.638C918.715 60.606 921.421 61.836 924.414 61.836C928.678 61.836 932.409 59.294 934.131 55.645L934.705 55.932C932.901 59.827 928.965 62.492 924.414 62.492C918.141 62.492 913.057 57.408 913.057 51.135ZM913.713 51.135C913.713 52.324 913.918 53.431 914.246 54.497L918.674 51.791C918.633 51.586 918.633 51.34 918.633 51.135C918.633 47.937 921.216 45.354 924.414 45.354C925.603 45.354 926.751 45.723 927.653 46.338L932.04 43.673C930.113 41.664 927.407 40.434 924.414 40.434C918.51 40.434 913.713 45.231 913.713 51.135ZM914.492 55.112C914.943 56.219 915.558 57.244 916.337 58.146L920.642 55.522C919.74 54.743 919.084 53.677 918.797 52.488L914.492 55.112ZM919.289 51.135V51.422L927.038 46.707C926.259 46.256 925.357 46.01 924.414 46.01C921.585 46.01 919.289 48.306 919.289 51.135ZM919.371 52.16C919.617 53.349 920.314 54.415 921.257 55.153L929.457 50.151C929.211 48.962 928.555 47.896 927.612 47.117L919.371 52.16ZM928.227 46.789C929.129 47.568 929.785 48.593 930.031 49.823L934.377 47.158C933.926 46.051 933.27 45.067 932.532 44.165L928.227 46.789ZM936.165 46.953C936.165 42.976 939.363 39.778 943.34 39.778C946.292 39.778 948.834 41.582 949.941 44.124L949.326 44.411C948.342 42.074 946.005 40.434 943.34 40.434C939.732 40.434 936.821 43.345 936.821 46.953C936.821 50.028 938.912 52.57 941.782 53.308L943.586 53.759C944.283 53.923 944.775 54.579 944.775 55.317C944.775 56.219 944.078 56.916 943.176 56.916C942.479 56.916 941.905 56.506 941.659 55.85L942.274 55.604C942.397 55.973 942.725 56.26 943.176 56.26C943.709 56.26 944.119 55.85 944.119 55.317C944.119 54.866 943.873 54.497 943.422 54.374L941.577 53.923C938.461 53.144 936.165 50.315 936.165 46.953ZM936.575 58.187L937.19 57.9C938.174 60.237 940.47 61.836 943.176 61.836C946.784 61.836 949.695 58.925 949.695 55.317C949.695 52.242 947.604 49.7 944.734 48.962L942.93 48.511C942.192 48.306 941.741 47.691 941.741 46.953C941.741 46.051 942.438 45.354 943.34 45.354C944.037 45.354 944.611 45.805 944.816 46.42L944.242 46.666C944.119 46.297 943.75 46.01 943.34 46.01C942.807 46.01 942.397 46.42 942.397 46.953C942.397 47.404 942.643 47.773 943.094 47.896L944.939 48.347C948.096 49.126 950.351 51.955 950.351 55.317C950.351 59.294 947.153 62.492 943.176 62.492C940.224 62.492 937.682 60.729 936.575 58.187ZM980.706 55.522L978.082 62H977.426L970.415 44.698L967.381 62H966.725L969.964 43.55L966.315 34.448L961.477 62H960.821L965.864 33.3H966.52L970.169 42.402L971.768 33.3H972.424L980.706 53.882L988.988 33.3H989.644L991.243 42.361L994.892 33.3H995.548L1000.59 62H999.935L995.097 34.448L991.448 43.509L994.687 62H994.031L990.997 44.616L983.986 62H983.33L980.706 55.522ZM983.658 61.18L990.792 43.468L989.193 34.448L981.034 54.702L983.658 61.18ZM980.378 54.702L972.219 34.448L970.62 43.55L977.754 61.18L980.378 54.702ZM1013.18 62.492C1006.91 62.492 1001.82 57.408 1001.82 51.135C1001.82 44.862 1006.91 39.778 1013.18 39.778C1019.45 39.778 1024.54 44.862 1024.54 51.135C1024.54 57.408 1019.45 62.492 1013.18 62.492ZM1013.18 61.836C1019.08 61.836 1023.88 57.039 1023.88 51.135C1023.88 45.231 1019.08 40.434 1013.18 40.434C1007.28 40.434 1002.48 45.231 1002.48 51.135C1002.48 57.039 1007.28 61.836 1013.18 61.836ZM1013.18 56.916C1009.98 56.916 1007.4 54.333 1007.4 51.135C1007.4 47.937 1009.98 45.354 1013.18 45.354C1016.38 45.354 1018.96 47.937 1018.96 51.135C1018.96 54.333 1016.38 56.916 1013.18 56.916ZM1013.18 56.26C1016.01 56.26 1018.31 53.964 1018.31 51.135C1018.31 48.306 1016.01 46.01 1013.18 46.01C1010.35 46.01 1008.06 48.306 1008.06 51.135C1008.06 53.964 1010.35 56.26 1013.18 56.26ZM1038.57 61.016L1046.12 40.27H1046.86L1038.94 62H1038.21L1035.62 54.907L1033.04 62H1032.3L1024.39 40.27H1025.13L1032.67 61.016L1035.25 53.923L1030.29 40.27H1031.03L1035.62 52.898L1040.21 40.27H1040.95L1035.99 53.882L1038.57 61.016ZM1049.06 62V40.27H1049.71V62H1049.06ZM1055.29 40.27V62H1054.63V40.27H1055.29ZM1054.63 38.138V31.25H1055.29V38.138H1054.63ZM1049.71 31.25V38.138H1049.06V31.25H1049.71ZM1058.24 51.135C1058.24 44.862 1063.32 39.778 1069.6 39.778C1074.6 39.778 1078.82 42.976 1080.34 47.486L1067.01 55.563C1067.79 56.014 1068.65 56.26 1069.6 56.26C1071.65 56.26 1073.41 55.03 1074.23 53.308L1074.84 53.595C1073.94 55.563 1071.93 56.916 1069.6 56.916C1068.41 56.916 1067.3 56.547 1066.4 55.932L1061.97 58.638C1063.9 60.606 1066.6 61.836 1069.6 61.836C1073.86 61.836 1077.59 59.294 1079.31 55.645L1079.89 55.932C1078.08 59.827 1074.15 62.492 1069.6 62.492C1063.32 62.492 1058.24 57.408 1058.24 51.135ZM1058.89 51.135C1058.89 52.324 1059.1 53.431 1059.43 54.497L1063.86 51.791C1063.81 51.586 1063.81 51.34 1063.81 51.135C1063.81 47.937 1066.4 45.354 1069.6 45.354C1070.78 45.354 1071.93 45.723 1072.83 46.338L1077.22 43.673C1075.29 41.664 1072.59 40.434 1069.6 40.434C1063.69 40.434 1058.89 45.231 1058.89 51.135ZM1059.67 55.112C1060.12 56.219 1060.74 57.244 1061.52 58.146L1065.82 55.522C1064.92 54.743 1064.27 53.677 1063.98 52.488L1059.67 55.112ZM1064.47 51.135V51.422L1072.22 46.707C1071.44 46.256 1070.54 46.01 1069.6 46.01C1066.77 46.01 1064.47 48.306 1064.47 51.135ZM1064.55 52.16C1064.8 53.349 1065.5 54.415 1066.44 55.153L1074.64 50.151C1074.39 48.962 1073.74 47.896 1072.79 47.117L1064.55 52.16ZM1073.41 46.789C1074.31 47.568 1074.97 48.593 1075.21 49.823L1079.56 47.158C1079.11 46.051 1078.45 45.067 1077.71 44.165L1073.41 46.789ZM1081.35 46.953C1081.35 42.976 1084.54 39.778 1088.52 39.778C1091.47 39.778 1094.02 41.582 1095.12 44.124L1094.51 44.411C1093.52 42.074 1091.19 40.434 1088.52 40.434C1084.91 40.434 1082 43.345 1082 46.953C1082 50.028 1084.09 52.57 1086.96 53.308L1088.77 53.759C1089.46 53.923 1089.96 54.579 1089.96 55.317C1089.96 56.219 1089.26 56.916 1088.36 56.916C1087.66 56.916 1087.09 56.506 1086.84 55.85L1087.46 55.604C1087.58 55.973 1087.91 56.26 1088.36 56.26C1088.89 56.26 1089.3 55.85 1089.3 55.317C1089.3 54.866 1089.05 54.497 1088.6 54.374L1086.76 53.923C1083.64 53.144 1081.35 50.315 1081.35 46.953ZM1081.76 58.187L1082.37 57.9C1083.36 60.237 1085.65 61.836 1088.36 61.836C1091.97 61.836 1094.88 58.925 1094.88 55.317C1094.88 52.242 1092.79 49.7 1089.92 48.962L1088.11 48.511C1087.37 48.306 1086.92 47.691 1086.92 46.953C1086.92 46.051 1087.62 45.354 1088.52 45.354C1089.22 45.354 1089.79 45.805 1090 46.42L1089.42 46.666C1089.3 46.297 1088.93 46.01 1088.52 46.01C1087.99 46.01 1087.58 46.42 1087.58 46.953C1087.58 47.404 1087.82 47.773 1088.28 47.896L1090.12 48.347C1093.28 49.126 1095.53 51.955 1095.53 55.317C1095.53 59.294 1092.33 62.492 1088.36 62.492C1085.41 62.492 1082.86 60.729 1081.76 58.187ZM1125.89 55.522L1123.26 62H1122.61L1115.6 44.698L1112.56 62H1111.91L1115.15 43.55L1111.5 34.448L1106.66 62H1106L1111.05 33.3H1111.7L1115.35 42.402L1116.95 33.3H1117.61L1125.89 53.882L1134.17 33.3H1134.83L1136.42 42.361L1140.07 33.3H1140.73L1145.77 62H1145.12L1140.28 34.448L1136.63 43.509L1139.87 62H1139.21L1136.18 44.616L1129.17 62H1128.51L1125.89 55.522ZM1128.84 61.18L1135.97 43.468L1134.37 34.448L1126.22 54.702L1128.84 61.18ZM1125.56 54.702L1117.4 34.448L1115.8 43.55L1122.94 61.18L1125.56 54.702ZM1158.36 62.492C1152.09 62.492 1147.01 57.408 1147.01 51.135C1147.01 44.862 1152.09 39.778 1158.36 39.778C1164.64 39.778 1169.72 44.862 1169.72 51.135C1169.72 57.408 1164.64 62.492 1158.36 62.492ZM1158.36 61.836C1164.27 61.836 1169.06 57.039 1169.06 51.135C1169.06 45.231 1164.27 40.434 1158.36 40.434C1152.46 40.434 1147.66 45.231 1147.66 51.135C1147.66 57.039 1152.46 61.836 1158.36 61.836ZM1158.36 56.916C1155.16 56.916 1152.58 54.333 1152.58 51.135C1152.58 47.937 1155.16 45.354 1158.36 45.354C1161.56 45.354 1164.14 47.937 1164.14 51.135C1164.14 54.333 1161.56 56.916 1158.36 56.916ZM1158.36 56.26C1161.19 56.26 1163.49 53.964 1163.49 51.135C1163.49 48.306 1161.19 46.01 1158.36 46.01C1155.53 46.01 1153.24 48.306 1153.24 51.135C1153.24 53.964 1155.53 56.26 1158.36 56.26ZM1183.76 61.016L1191.3 40.27H1192.04L1184.12 62H1183.39L1180.8 54.907L1178.22 62H1177.48L1169.57 40.27H1170.31L1177.85 61.016L1180.43 53.923L1175.47 40.27H1176.21L1180.8 52.898L1185.4 40.27H1186.13L1181.17 53.882L1183.76 61.016ZM1194.24 62V40.27H1194.9V62H1194.24ZM1200.47 40.27V62H1199.82V40.27H1200.47ZM1199.82 38.138V31.25H1200.47V38.138H1199.82ZM1194.9 31.25V38.138H1194.24V31.25H1194.9ZM1203.42 51.135C1203.42 44.862 1208.5 39.778 1214.78 39.778C1219.78 39.778 1224 42.976 1225.52 47.486L1212.19 55.563C1212.97 56.014 1213.83 56.26 1214.78 56.26C1216.83 56.26 1218.59 55.03 1219.41 53.308L1220.03 53.595C1219.12 55.563 1217.11 56.916 1214.78 56.916C1213.59 56.916 1212.48 56.547 1211.58 55.932L1207.15 58.638C1209.08 60.606 1211.78 61.836 1214.78 61.836C1219.04 61.836 1222.77 59.294 1224.49 55.645L1225.07 55.932C1223.26 59.827 1219.33 62.492 1214.78 62.492C1208.5 62.492 1203.42 57.408 1203.42 51.135ZM1204.08 51.135C1204.08 52.324 1204.28 53.431 1204.61 54.497L1209.04 51.791C1209 51.586 1209 51.34 1209 51.135C1209 47.937 1211.58 45.354 1214.78 45.354C1215.97 45.354 1217.11 45.723 1218.02 46.338L1222.4 43.673C1220.48 41.664 1217.77 40.434 1214.78 40.434C1208.87 40.434 1204.08 45.231 1204.08 51.135ZM1204.86 55.112C1205.31 56.219 1205.92 57.244 1206.7 58.146L1211.01 55.522C1210.1 54.743 1209.45 53.677 1209.16 52.488L1204.86 55.112ZM1209.65 51.135V51.422L1217.4 46.707C1216.62 46.256 1215.72 46.01 1214.78 46.01C1211.95 46.01 1209.65 48.306 1209.65 51.135ZM1209.73 52.16C1209.98 53.349 1210.68 54.415 1211.62 55.153L1219.82 50.151C1219.57 48.962 1218.92 47.896 1217.98 47.117L1209.73 52.16ZM1218.59 46.789C1219.49 47.568 1220.15 48.593 1220.39 49.823L1224.74 47.158C1224.29 46.051 1223.63 45.067 1222.9 44.165L1218.59 46.789ZM1226.53 46.953C1226.53 42.976 1229.73 39.778 1233.7 39.778C1236.66 39.778 1239.2 41.582 1240.3 44.124L1239.69 44.411C1238.71 42.074 1236.37 40.434 1233.7 40.434C1230.1 40.434 1227.18 43.345 1227.18 46.953C1227.18 50.028 1229.28 52.57 1232.15 53.308L1233.95 53.759C1234.65 53.923 1235.14 54.579 1235.14 55.317C1235.14 56.219 1234.44 56.916 1233.54 56.916C1232.84 56.916 1232.27 56.506 1232.02 55.85L1232.64 55.604C1232.76 55.973 1233.09 56.26 1233.54 56.26C1234.07 56.26 1234.48 55.85 1234.48 55.317C1234.48 54.866 1234.24 54.497 1233.79 54.374L1231.94 53.923C1228.82 53.144 1226.53 50.315 1226.53 46.953ZM1226.94 58.187L1227.55 57.9C1228.54 60.237 1230.83 61.836 1233.54 61.836C1237.15 61.836 1240.06 58.925 1240.06 55.317C1240.06 52.242 1237.97 49.7 1235.1 48.962L1233.29 48.511C1232.56 48.306 1232.1 47.691 1232.1 46.953C1232.1 46.051 1232.8 45.354 1233.7 45.354C1234.4 45.354 1234.97 45.805 1235.18 46.42L1234.61 46.666C1234.48 46.297 1234.11 46.01 1233.7 46.01C1233.17 46.01 1232.76 46.42 1232.76 46.953C1232.76 47.404 1233.01 47.773 1233.46 47.896L1235.3 48.347C1238.46 49.126 1240.71 51.955 1240.71 55.317C1240.71 59.294 1237.52 62.492 1233.54 62.492C1230.59 62.492 1228.05 60.729 1226.94 58.187ZM1271.07 55.522L1268.44 62H1267.79L1260.78 44.698L1257.74 62H1257.09L1260.33 43.55L1256.68 34.448L1251.84 62H1251.18L1256.23 33.3H1256.88L1260.53 42.402L1262.13 33.3H1262.79L1271.07 53.882L1279.35 33.3H1280.01L1281.61 42.361L1285.25 33.3H1285.91L1290.95 62H1290.3L1285.46 34.448L1281.81 43.509L1285.05 62H1284.39L1281.36 44.616L1274.35 62H1273.69L1271.07 55.522ZM1274.02 61.18L1281.15 43.468L1279.56 34.448L1271.4 54.702L1274.02 61.18ZM1270.74 54.702L1262.58 34.448L1260.98 43.55L1268.12 61.18L1270.74 54.702ZM1303.54 62.492C1297.27 62.492 1292.19 57.408 1292.19 51.135C1292.19 44.862 1297.27 39.778 1303.54 39.778C1309.82 39.778 1314.9 44.862 1314.9 51.135C1314.9 57.408 1309.82 62.492 1303.54 62.492ZM1303.54 61.836C1309.45 61.836 1314.24 57.039 1314.24 51.135C1314.24 45.231 1309.45 40.434 1303.54 40.434C1297.64 40.434 1292.84 45.231 1292.84 51.135C1292.84 57.039 1297.64 61.836 1303.54 61.836ZM1303.54 56.916C1300.35 56.916 1297.76 54.333 1297.76 51.135C1297.76 47.937 1300.35 45.354 1303.54 45.354C1306.74 45.354 1309.32 47.937 1309.32 51.135C1309.32 54.333 1306.74 56.916 1303.54 56.916ZM1303.54 56.26C1306.37 56.26 1308.67 53.964 1308.67 51.135C1308.67 48.306 1306.37 46.01 1303.54 46.01C1300.71 46.01 1298.42 48.306 1298.42 51.135C1298.42 53.964 1300.71 56.26 1303.54 56.26ZM1328.94 61.016L1336.48 40.27H1337.22L1329.31 62H1328.57L1325.99 54.907L1323.4 62H1322.66L1314.75 40.27H1315.49L1323.03 61.016L1325.62 53.923L1320.66 40.27H1321.39L1325.99 52.898L1330.58 40.27H1331.32L1326.35 53.882L1328.94 61.016ZM1339.42 62V40.27H1340.08V62H1339.42ZM1345.65 40.27V62H1345V40.27H1345.65ZM1345 38.138V31.25H1345.65V38.138H1345ZM1340.08 31.25V38.138H1339.42V31.25H1340.08ZM1348.6 51.135C1348.6 44.862 1353.69 39.778 1359.96 39.778C1364.96 39.778 1369.18 42.976 1370.7 47.486L1357.38 55.563C1358.15 56.014 1359.02 56.26 1359.96 56.26C1362.01 56.26 1363.77 55.03 1364.59 53.308L1365.21 53.595C1364.3 55.563 1362.3 56.916 1359.96 56.916C1358.77 56.916 1357.66 56.547 1356.76 55.932L1352.33 58.638C1354.26 60.606 1356.97 61.836 1359.96 61.836C1364.22 61.836 1367.95 59.294 1369.68 55.645L1370.25 55.932C1368.45 59.827 1364.51 62.492 1359.96 62.492C1353.69 62.492 1348.6 57.408 1348.6 51.135ZM1349.26 51.135C1349.26 52.324 1349.46 53.431 1349.79 54.497L1354.22 51.791C1354.18 51.586 1354.18 51.34 1354.18 51.135C1354.18 47.937 1356.76 45.354 1359.96 45.354C1361.15 45.354 1362.3 45.723 1363.2 46.338L1367.58 43.673C1365.66 41.664 1362.95 40.434 1359.96 40.434C1354.05 40.434 1349.26 45.231 1349.26 51.135ZM1350.04 55.112C1350.49 56.219 1351.1 57.244 1351.88 58.146L1356.19 55.522C1355.28 54.743 1354.63 53.677 1354.34 52.488L1350.04 55.112ZM1354.83 51.135V51.422L1362.58 46.707C1361.8 46.256 1360.9 46.01 1359.96 46.01C1357.13 46.01 1354.83 48.306 1354.83 51.135ZM1354.92 52.16C1355.16 53.349 1355.86 54.415 1356.8 55.153L1365 50.151C1364.76 48.962 1364.1 47.896 1363.16 47.117L1354.92 52.16ZM1363.77 46.789C1364.67 47.568 1365.33 48.593 1365.58 49.823L1369.92 47.158C1369.47 46.051 1368.81 45.067 1368.08 44.165L1363.77 46.789ZM1371.71 46.953C1371.71 42.976 1374.91 39.778 1378.89 39.778C1381.84 39.778 1384.38 41.582 1385.49 44.124L1384.87 44.411C1383.89 42.074 1381.55 40.434 1378.89 40.434C1375.28 40.434 1372.37 43.345 1372.37 46.953C1372.37 50.028 1374.46 52.57 1377.33 53.308L1379.13 53.759C1379.83 53.923 1380.32 54.579 1380.32 55.317C1380.32 56.219 1379.62 56.916 1378.72 56.916C1378.02 56.916 1377.45 56.506 1377.2 55.85L1377.82 55.604C1377.94 55.973 1378.27 56.26 1378.72 56.26C1379.25 56.26 1379.66 55.85 1379.66 55.317C1379.66 54.866 1379.42 54.497 1378.97 54.374L1377.12 53.923C1374.01 53.144 1371.71 50.315 1371.71 46.953ZM1372.12 58.187L1372.74 57.9C1373.72 60.237 1376.02 61.836 1378.72 61.836C1382.33 61.836 1385.24 58.925 1385.24 55.317C1385.24 52.242 1383.15 49.7 1380.28 48.962L1378.48 48.511C1377.74 48.306 1377.29 47.691 1377.29 46.953C1377.29 46.051 1377.98 45.354 1378.89 45.354C1379.58 45.354 1380.16 45.805 1380.36 46.42L1379.79 46.666C1379.66 46.297 1379.3 46.01 1378.89 46.01C1378.35 46.01 1377.94 46.42 1377.94 46.953C1377.94 47.404 1378.19 47.773 1378.64 47.896L1380.48 48.347C1383.64 49.126 1385.9 51.955 1385.9 55.317C1385.9 59.294 1382.7 62.492 1378.72 62.492C1375.77 62.492 1373.23 60.729 1372.12 58.187ZM1416.25 55.522L1413.63 62H1412.97L1405.96 44.698L1402.93 62H1402.27L1405.51 43.55L1401.86 34.448L1397.02 62H1396.37L1401.41 33.3H1402.06L1405.71 42.402L1407.31 33.3H1407.97L1416.25 53.882L1424.53 33.3H1425.19L1426.79 42.361L1430.44 33.3H1431.09L1436.14 62H1435.48L1430.64 34.448L1426.99 43.509L1430.23 62H1429.58L1426.54 44.616L1419.53 62H1418.87L1416.25 55.522ZM1419.2 61.18L1426.34 43.468L1424.74 34.448L1416.58 54.702L1419.2 61.18ZM1415.92 54.702L1407.76 34.448L1406.16 43.55L1413.3 61.18L1415.92 54.702ZM1448.73 62.492C1442.45 62.492 1437.37 57.408 1437.37 51.135C1437.37 44.862 1442.45 39.778 1448.73 39.778C1455 39.778 1460.08 44.862 1460.08 51.135C1460.08 57.408 1455 62.492 1448.73 62.492ZM1448.73 61.836C1454.63 61.836 1459.43 57.039 1459.43 51.135C1459.43 45.231 1454.63 40.434 1448.73 40.434C1442.82 40.434 1438.02 45.231 1438.02 51.135C1438.02 57.039 1442.82 61.836 1448.73 61.836ZM1448.73 56.916C1445.53 56.916 1442.94 54.333 1442.94 51.135C1442.94 47.937 1445.53 45.354 1448.73 45.354C1451.92 45.354 1454.51 47.937 1454.51 51.135C1454.51 54.333 1451.92 56.916 1448.73 56.916ZM1448.73 56.26C1451.55 56.26 1453.85 53.964 1453.85 51.135C1453.85 48.306 1451.55 46.01 1448.73 46.01C1445.9 46.01 1443.6 48.306 1443.6 51.135C1443.6 53.964 1445.9 56.26 1448.73 56.26ZM1474.12 61.016L1481.66 40.27H1482.4L1474.49 62H1473.75L1471.17 54.907L1468.58 62H1467.85L1459.93 40.27H1460.67L1468.22 61.016L1470.8 53.923L1465.84 40.27H1466.58L1471.17 52.898L1475.76 40.27H1476.5L1471.54 53.882L1474.12 61.016ZM1484.6 62V40.27H1485.26V62H1484.6ZM1490.84 40.27V62H1490.18V40.27H1490.84ZM1490.18 38.138V31.25H1490.84V38.138H1490.18ZM1485.26 31.25V38.138H1484.6V31.25H1485.26ZM1493.78 51.135C1493.78 44.862 1498.87 39.778 1505.14 39.778C1510.14 39.778 1514.37 42.976 1515.88 47.486L1502.56 55.563C1503.34 56.014 1504.2 56.26 1505.14 56.26C1507.19 56.26 1508.95 55.03 1509.77 53.308L1510.39 53.595C1509.49 55.563 1507.48 56.916 1505.14 56.916C1503.95 56.916 1502.84 56.547 1501.94 55.932L1497.51 58.638C1499.44 60.606 1502.15 61.836 1505.14 61.836C1509.4 61.836 1513.14 59.294 1514.86 55.645L1515.43 55.932C1513.63 59.827 1509.69 62.492 1505.14 62.492C1498.87 62.492 1493.78 57.408 1493.78 51.135ZM1494.44 51.135C1494.44 52.324 1494.64 53.431 1494.97 54.497L1499.4 51.791C1499.36 51.586 1499.36 51.34 1499.36 51.135C1499.36 47.937 1501.94 45.354 1505.14 45.354C1506.33 45.354 1507.48 45.723 1508.38 46.338L1512.77 43.673C1510.84 41.664 1508.13 40.434 1505.14 40.434C1499.24 40.434 1494.44 45.231 1494.44 51.135ZM1495.22 55.112C1495.67 56.219 1496.28 57.244 1497.06 58.146L1501.37 55.522C1500.47 54.743 1499.81 53.677 1499.52 52.488L1495.22 55.112ZM1500.02 51.135V51.422L1507.76 46.707C1506.99 46.256 1506.08 46.01 1505.14 46.01C1502.31 46.01 1500.02 48.306 1500.02 51.135ZM1500.1 52.16C1500.34 53.349 1501.04 54.415 1501.98 55.153L1510.18 50.151C1509.94 48.962 1509.28 47.896 1508.34 47.117L1500.1 52.16ZM1508.95 46.789C1509.86 47.568 1510.51 48.593 1510.76 49.823L1515.1 47.158C1514.65 46.051 1514 45.067 1513.26 44.165L1508.95 46.789ZM1516.89 46.953C1516.89 42.976 1520.09 39.778 1524.07 39.778C1527.02 39.778 1529.56 41.582 1530.67 44.124L1530.05 44.411C1529.07 42.074 1526.73 40.434 1524.07 40.434C1520.46 40.434 1517.55 43.345 1517.55 46.953C1517.55 50.028 1519.64 52.57 1522.51 53.308L1524.31 53.759C1525.01 53.923 1525.5 54.579 1525.5 55.317C1525.5 56.219 1524.8 56.916 1523.9 56.916C1523.21 56.916 1522.63 56.506 1522.39 55.85L1523 55.604C1523.12 55.973 1523.45 56.26 1523.9 56.26C1524.44 56.26 1524.85 55.85 1524.85 55.317C1524.85 54.866 1524.6 54.497 1524.15 54.374L1522.3 53.923C1519.19 53.144 1516.89 50.315 1516.89 46.953ZM1517.3 58.187L1517.92 57.9C1518.9 60.237 1521.2 61.836 1523.9 61.836C1527.51 61.836 1530.42 58.925 1530.42 55.317C1530.42 52.242 1528.33 49.7 1525.46 48.962L1523.66 48.511C1522.92 48.306 1522.47 47.691 1522.47 46.953C1522.47 46.051 1523.16 45.354 1524.07 45.354C1524.76 45.354 1525.34 45.805 1525.54 46.42L1524.97 46.666C1524.85 46.297 1524.48 46.01 1524.07 46.01C1523.53 46.01 1523.12 46.42 1523.12 46.953C1523.12 47.404 1523.37 47.773 1523.82 47.896L1525.67 48.347C1528.82 49.126 1531.08 51.955 1531.08 55.317C1531.08 59.294 1527.88 62.492 1523.9 62.492C1520.95 62.492 1518.41 60.729 1517.3 58.187ZM1561.43 55.522L1558.81 62H1558.15L1551.14 44.698L1548.11 62H1547.45L1550.69 43.55L1547.04 34.448L1542.2 62H1541.55L1546.59 33.3H1547.25L1550.9 42.402L1552.49 33.3H1553.15L1561.43 53.882L1569.71 33.3H1570.37L1571.97 42.361L1575.62 33.3H1576.27L1581.32 62H1580.66L1575.82 34.448L1572.17 43.509L1575.41 62H1574.76L1571.72 44.616L1564.71 62H1564.06L1561.43 55.522ZM1564.38 61.18L1571.52 43.468L1569.92 34.448L1561.76 54.702L1564.38 61.18ZM1561.1 54.702L1552.95 34.448L1551.35 43.55L1558.48 61.18L1561.1 54.702ZM1593.91 62.492C1587.63 62.492 1582.55 57.408 1582.55 51.135C1582.55 44.862 1587.63 39.778 1593.91 39.778C1600.18 39.778 1605.26 44.862 1605.26 51.135C1605.26 57.408 1600.18 62.492 1593.91 62.492ZM1593.91 61.836C1599.81 61.836 1604.61 57.039 1604.61 51.135C1604.61 45.231 1599.81 40.434 1593.91 40.434C1588 40.434 1583.21 45.231 1583.21 51.135C1583.21 57.039 1588 61.836 1593.91 61.836ZM1593.91 56.916C1590.71 56.916 1588.13 54.333 1588.13 51.135C1588.13 47.937 1590.71 45.354 1593.91 45.354C1597.1 45.354 1599.69 47.937 1599.69 51.135C1599.69 54.333 1597.1 56.916 1593.91 56.916ZM1593.91 56.26C1596.74 56.26 1599.03 53.964 1599.03 51.135C1599.03 48.306 1596.74 46.01 1593.91 46.01C1591.08 46.01 1588.78 48.306 1588.78 51.135C1588.78 53.964 1591.08 56.26 1593.91 56.26ZM1619.3 61.016L1626.84 40.27H1627.58L1619.67 62H1618.93L1616.35 54.907L1613.77 62H1613.03L1605.11 40.27H1605.85L1613.4 61.016L1615.98 53.923L1611.02 40.27H1611.76L1616.35 52.898L1620.94 40.27H1621.68L1616.72 53.882L1619.3 61.016ZM1629.78 62V40.27H1630.44V62H1629.78ZM1636.02 40.27V62H1635.36V40.27H1636.02ZM1635.36 38.138V31.25H1636.02V38.138H1635.36ZM1630.44 31.25V38.138H1629.78V31.25H1630.44ZM1638.97 51.135C1638.97 44.862 1644.05 39.778 1650.32 39.778C1655.32 39.778 1659.55 42.976 1661.06 47.486L1647.74 55.563C1648.52 56.014 1649.38 56.26 1650.32 56.26C1652.37 56.26 1654.14 55.03 1654.96 53.308L1655.57 53.595C1654.67 55.563 1652.66 56.916 1650.32 56.916C1649.13 56.916 1648.03 56.547 1647.12 55.932L1642.7 58.638C1644.62 60.606 1647.33 61.836 1650.32 61.836C1654.59 61.836 1658.32 59.294 1660.04 55.645L1660.61 55.932C1658.81 59.827 1654.87 62.492 1650.32 62.492C1644.05 62.492 1638.97 57.408 1638.97 51.135ZM1639.62 51.135C1639.62 52.324 1639.83 53.431 1640.15 54.497L1644.58 51.791C1644.54 51.586 1644.54 51.34 1644.54 51.135C1644.54 47.937 1647.12 45.354 1650.32 45.354C1651.51 45.354 1652.66 45.723 1653.56 46.338L1657.95 43.673C1656.02 41.664 1653.32 40.434 1650.32 40.434C1644.42 40.434 1639.62 45.231 1639.62 51.135ZM1640.4 55.112C1640.85 56.219 1641.47 57.244 1642.25 58.146L1646.55 55.522C1645.65 54.743 1644.99 53.677 1644.71 52.488L1640.4 55.112ZM1645.2 51.135V51.422L1652.95 46.707C1652.17 46.256 1651.27 46.01 1650.32 46.01C1647.49 46.01 1645.2 48.306 1645.2 51.135ZM1645.28 52.16C1645.53 53.349 1646.22 54.415 1647.17 55.153L1655.37 50.151C1655.12 48.962 1654.46 47.896 1653.52 47.117L1645.28 52.16ZM1654.14 46.789C1655.04 47.568 1655.69 48.593 1655.94 49.823L1660.29 47.158C1659.83 46.051 1659.18 45.067 1658.44 44.165L1654.14 46.789ZM1662.07 46.953C1662.07 42.976 1665.27 39.778 1669.25 39.778C1672.2 39.778 1674.74 41.582 1675.85 44.124L1675.23 44.411C1674.25 42.074 1671.91 40.434 1669.25 40.434C1665.64 40.434 1662.73 43.345 1662.73 46.953C1662.73 50.028 1664.82 52.57 1667.69 53.308L1669.49 53.759C1670.19 53.923 1670.68 54.579 1670.68 55.317C1670.68 56.219 1669.99 56.916 1669.08 56.916C1668.39 56.916 1667.81 56.506 1667.57 55.85L1668.18 55.604C1668.31 55.973 1668.63 56.26 1669.08 56.26C1669.62 56.26 1670.03 55.85 1670.03 55.317C1670.03 54.866 1669.78 54.497 1669.33 54.374L1667.49 53.923C1664.37 53.144 1662.07 50.315 1662.07 46.953ZM1662.48 58.187L1663.1 57.9C1664.08 60.237 1666.38 61.836 1669.08 61.836C1672.69 61.836 1675.6 58.925 1675.6 55.317C1675.6 52.242 1673.51 49.7 1670.64 48.962L1668.84 48.511C1668.1 48.306 1667.65 47.691 1667.65 46.953C1667.65 46.051 1668.35 45.354 1669.25 45.354C1669.95 45.354 1670.52 45.805 1670.72 46.42L1670.15 46.666C1670.03 46.297 1669.66 46.01 1669.25 46.01C1668.72 46.01 1668.31 46.42 1668.31 46.953C1668.31 47.404 1668.55 47.773 1669 47.896L1670.85 48.347C1674 49.126 1676.26 51.955 1676.26 55.317C1676.26 59.294 1673.06 62.492 1669.08 62.492C1666.13 62.492 1663.59 60.729 1662.48 58.187ZM1706.61 55.522L1703.99 62H1703.33L1696.32 44.698L1693.29 62H1692.63L1695.87 43.55L1692.22 34.448L1687.38 62H1686.73L1691.77 33.3H1692.43L1696.08 42.402L1697.68 33.3H1698.33L1706.61 53.882L1714.9 33.3H1715.55L1717.15 42.361L1720.8 33.3H1721.46L1726.5 62H1725.84L1721 34.448L1717.36 43.509L1720.59 62H1719.94L1716.9 44.616L1709.89 62H1709.24L1706.61 55.522ZM1709.57 61.18L1716.7 43.468L1715.1 34.448L1706.94 54.702L1709.57 61.18ZM1706.29 54.702L1698.13 34.448L1696.53 43.55L1703.66 61.18L1706.29 54.702ZM1739.09 62.492C1732.82 62.492 1727.73 57.408 1727.73 51.135C1727.73 44.862 1732.82 39.778 1739.09 39.778C1745.36 39.778 1750.45 44.862 1750.45 51.135C1750.45 57.408 1745.36 62.492 1739.09 62.492ZM1739.09 61.836C1744.99 61.836 1749.79 57.039 1749.79 51.135C1749.79 45.231 1744.99 40.434 1739.09 40.434C1733.18 40.434 1728.39 45.231 1728.39 51.135C1728.39 57.039 1733.18 61.836 1739.09 61.836ZM1739.09 56.916C1735.89 56.916 1733.31 54.333 1733.31 51.135C1733.31 47.937 1735.89 45.354 1739.09 45.354C1742.29 45.354 1744.87 47.937 1744.87 51.135C1744.87 54.333 1742.29 56.916 1739.09 56.916ZM1739.09 56.26C1741.92 56.26 1744.21 53.964 1744.21 51.135C1744.21 48.306 1741.92 46.01 1739.09 46.01C1736.26 46.01 1733.96 48.306 1733.96 51.135C1733.96 53.964 1736.26 56.26 1739.09 56.26ZM1764.48 61.016L1772.03 40.27H1772.76L1764.85 62H1764.11L1761.53 54.907L1758.95 62H1758.21L1750.3 40.27H1751.03L1758.58 61.016L1761.16 53.923L1756.2 40.27H1756.94L1761.53 52.898L1766.12 40.27H1766.86L1761.9 53.882L1764.48 61.016ZM1774.97 62V40.27H1775.62V62H1774.97ZM1781.2 40.27V62H1780.54V40.27H1781.2ZM1780.54 38.138V31.25H1781.2V38.138H1780.54ZM1775.62 31.25V38.138H1774.97V31.25H1775.62ZM1784.15 51.135C1784.15 44.862 1789.23 39.778 1795.5 39.778C1800.51 39.778 1804.73 42.976 1806.25 47.486L1792.92 55.563C1793.7 56.014 1794.56 56.26 1795.5 56.26C1797.55 56.26 1799.32 55.03 1800.14 53.308L1800.75 53.595C1799.85 55.563 1797.84 56.916 1795.5 56.916C1794.31 56.916 1793.21 56.547 1792.31 55.932L1787.88 58.638C1789.8 60.606 1792.51 61.836 1795.5 61.836C1799.77 61.836 1803.5 59.294 1805.22 55.645L1805.79 55.932C1803.99 59.827 1800.05 62.492 1795.5 62.492C1789.23 62.492 1784.15 57.408 1784.15 51.135ZM1784.8 51.135C1784.8 52.324 1785.01 53.431 1785.34 54.497L1789.76 51.791C1789.72 51.586 1789.72 51.34 1789.72 51.135C1789.72 47.937 1792.31 45.354 1795.5 45.354C1796.69 45.354 1797.84 45.723 1798.74 46.338L1803.13 43.673C1801.2 41.664 1798.5 40.434 1795.5 40.434C1789.6 40.434 1784.8 45.231 1784.8 51.135ZM1785.58 55.112C1786.03 56.219 1786.65 57.244 1787.43 58.146L1791.73 55.522C1790.83 54.743 1790.17 53.677 1789.89 52.488L1785.58 55.112ZM1790.38 51.135V51.422L1798.13 46.707C1797.35 46.256 1796.45 46.01 1795.5 46.01C1792.67 46.01 1790.38 48.306 1790.38 51.135ZM1790.46 52.16C1790.71 53.349 1791.4 54.415 1792.35 55.153L1800.55 50.151C1800.3 48.962 1799.64 47.896 1798.7 47.117L1790.46 52.16ZM1799.32 46.789C1800.22 47.568 1800.87 48.593 1801.12 49.823L1805.47 47.158C1805.02 46.051 1804.36 45.067 1803.62 44.165L1799.32 46.789ZM1807.25 46.953C1807.25 42.976 1810.45 39.778 1814.43 39.778C1817.38 39.778 1819.92 41.582 1821.03 44.124L1820.42 44.411C1819.43 42.074 1817.09 40.434 1814.43 40.434C1810.82 40.434 1807.91 43.345 1807.91 46.953C1807.91 50.028 1810 52.57 1812.87 53.308L1814.68 53.759C1815.37 53.923 1815.86 54.579 1815.86 55.317C1815.86 56.219 1815.17 56.916 1814.27 56.916C1813.57 56.916 1812.99 56.506 1812.75 55.85L1813.36 55.604C1813.49 55.973 1813.81 56.26 1814.27 56.26C1814.8 56.26 1815.21 55.85 1815.21 55.317C1815.21 54.866 1814.96 54.497 1814.51 54.374L1812.67 53.923C1809.55 53.144 1807.25 50.315 1807.25 46.953ZM1807.66 58.187L1808.28 57.9C1809.26 60.237 1811.56 61.836 1814.27 61.836C1817.87 61.836 1820.78 58.925 1820.78 55.317C1820.78 52.242 1818.69 49.7 1815.82 48.962L1814.02 48.511C1813.28 48.306 1812.83 47.691 1812.83 46.953C1812.83 46.051 1813.53 45.354 1814.43 45.354C1815.13 45.354 1815.7 45.805 1815.91 46.42L1815.33 46.666C1815.21 46.297 1814.84 46.01 1814.43 46.01C1813.9 46.01 1813.49 46.42 1813.49 46.953C1813.49 47.404 1813.73 47.773 1814.18 47.896L1816.03 48.347C1819.19 49.126 1821.44 51.955 1821.44 55.317C1821.44 59.294 1818.24 62.492 1814.27 62.492C1811.31 62.492 1808.77 60.729 1807.66 58.187ZM1851.8 55.522L1849.17 62H1848.52L1841.5 44.698L1838.47 62H1837.81L1841.05 43.55L1837.4 34.448L1832.57 62H1831.91L1836.95 33.3H1837.61L1841.26 42.402L1842.86 33.3H1843.51L1851.8 53.882L1860.08 33.3H1860.73L1862.33 42.361L1865.98 33.3H1866.64L1871.68 62H1871.02L1866.19 34.448L1862.54 43.509L1865.78 62H1865.12L1862.09 44.616L1855.08 62H1854.42L1851.8 55.522ZM1854.75 61.18L1861.88 43.468L1860.28 34.448L1852.12 54.702L1854.75 61.18ZM1851.47 54.702L1843.31 34.448L1841.71 43.55L1848.84 61.18L1851.47 54.702ZM1884.27 62.492C1878 62.492 1872.91 57.408 1872.91 51.135C1872.91 44.862 1878 39.778 1884.27 39.778C1890.54 39.778 1895.63 44.862 1895.63 51.135C1895.63 57.408 1890.54 62.492 1884.27 62.492ZM1884.27 61.836C1890.17 61.836 1894.97 57.039 1894.97 51.135C1894.97 45.231 1890.17 40.434 1884.27 40.434C1878.37 40.434 1873.57 45.231 1873.57 51.135C1873.57 57.039 1878.37 61.836 1884.27 61.836ZM1884.27 56.916C1881.07 56.916 1878.49 54.333 1878.49 51.135C1878.49 47.937 1881.07 45.354 1884.27 45.354C1887.47 45.354 1890.05 47.937 1890.05 51.135C1890.05 54.333 1887.47 56.916 1884.27 56.916ZM1884.27 56.26C1887.1 56.26 1889.4 53.964 1889.4 51.135C1889.4 48.306 1887.1 46.01 1884.27 46.01C1881.44 46.01 1879.15 48.306 1879.15 51.135C1879.15 53.964 1881.44 56.26 1884.27 56.26ZM1909.66 61.016L1917.21 40.27H1917.95L1910.03 62H1909.29L1906.71 54.907L1904.13 62H1903.39L1895.48 40.27H1896.22L1903.76 61.016L1906.34 53.923L1901.38 40.27H1902.12L1906.71 52.898L1911.3 40.27H1912.04L1907.08 53.882L1909.66 61.016ZM1920.15 62V40.27H1920.8V62H1920.15ZM1926.38 40.27V62H1925.72V40.27H1926.38ZM1925.72 38.138V31.25H1926.38V38.138H1925.72ZM1920.8 31.25V38.138H1920.15V31.25H1920.8ZM1929.33 51.135C1929.33 44.862 1934.41 39.778 1940.69 39.778C1945.69 39.778 1949.91 42.976 1951.43 47.486L1938.1 55.563C1938.88 56.014 1939.74 56.26 1940.69 56.26C1942.74 56.26 1944.5 55.03 1945.32 53.308L1945.93 53.595C1945.03 55.563 1943.02 56.916 1940.69 56.916C1939.5 56.916 1938.39 56.547 1937.49 55.932L1933.06 58.638C1934.99 60.606 1937.69 61.836 1940.69 61.836C1944.95 61.836 1948.68 59.294 1950.4 55.645L1950.98 55.932C1949.17 59.827 1945.24 62.492 1940.69 62.492C1934.41 62.492 1929.33 57.408 1929.33 51.135ZM1929.98 51.135C1929.98 52.324 1930.19 53.431 1930.52 54.497L1934.95 51.791C1934.9 51.586 1934.9 51.34 1934.9 51.135C1934.9 47.937 1937.49 45.354 1940.69 45.354C1941.87 45.354 1943.02 45.723 1943.92 46.338L1948.31 43.673C1946.38 41.664 1943.68 40.434 1940.69 40.434C1934.78 40.434 1929.98 45.231 1929.98 51.135ZM1930.76 55.112C1931.21 56.219 1931.83 57.244 1932.61 58.146L1936.91 55.522C1936.01 54.743 1935.36 53.677 1935.07 52.488L1930.76 55.112ZM1935.56 51.135V51.422L1943.31 46.707C1942.53 46.256 1941.63 46.01 1940.69 46.01C1937.86 46.01 1935.56 48.306 1935.56 51.135ZM1935.64 52.16C1935.89 53.349 1936.59 54.415 1937.53 55.153L1945.73 50.151C1945.48 48.962 1944.83 47.896 1943.88 47.117L1935.64 52.16ZM1944.5 46.789C1945.4 47.568 1946.06 48.593 1946.3 49.823L1950.65 47.158C1950.2 46.051 1949.54 45.067 1948.8 44.165L1944.5 46.789ZM1952.44 46.953C1952.44 42.976 1955.63 39.778 1959.61 39.778C1962.56 39.778 1965.11 41.582 1966.21 44.124L1965.6 44.411C1964.61 42.074 1962.28 40.434 1959.61 40.434C1956 40.434 1953.09 43.345 1953.09 46.953C1953.09 50.028 1955.18 52.57 1958.05 53.308L1959.86 53.759C1960.55 53.923 1961.05 54.579 1961.05 55.317C1961.05 56.219 1960.35 56.916 1959.45 56.916C1958.75 56.916 1958.18 56.506 1957.93 55.85L1958.55 55.604C1958.67 55.973 1959 56.26 1959.45 56.26C1959.98 56.26 1960.39 55.85 1960.39 55.317C1960.39 54.866 1960.14 54.497 1959.69 54.374L1957.85 53.923C1954.73 53.144 1952.44 50.315 1952.44 46.953ZM1952.85 58.187L1953.46 57.9C1954.45 60.237 1956.74 61.836 1959.45 61.836C1963.06 61.836 1965.97 58.925 1965.97 55.317C1965.97 52.242 1963.88 49.7 1961.01 48.962L1959.2 48.511C1958.46 48.306 1958.01 47.691 1958.01 46.953C1958.01 46.051 1958.71 45.354 1959.61 45.354C1960.31 45.354 1960.88 45.805 1961.09 46.42L1960.51 46.666C1960.39 46.297 1960.02 46.01 1959.61 46.01C1959.08 46.01 1958.67 46.42 1958.67 46.953C1958.67 47.404 1958.91 47.773 1959.37 47.896L1961.21 48.347C1964.37 49.126 1966.62 51.955 1966.62 55.317C1966.62 59.294 1963.42 62.492 1959.45 62.492C1956.5 62.492 1953.95 60.729 1952.85 58.187Z" fill="white"/>
</g>
<defs>
<clipPath id="clip0_443_857">
<rect width="1940" height="343" fill="white"/>
</clipPath>
</defs>
</svg>
