<!DOCTYPE svg PUBLIC "-//W3C//DTD SVG 1.1//EN" "http://www.w3.org/Graphics/SVG/1.1/DTD/svg11.dtd">
<!-- Uploaded to: SVG Repo, www.svgrepo.com, Transformed by: SVG Repo Mixer Tools -->
<svg height="800px" width="800px" version="1.1" id="Layer_1" xmlns="http://www.w3.org/2000/svg" xmlns:xlink="http://www.w3.org/1999/xlink" viewBox="0 0 512 512" xml:space="preserve" fill="#000000">
<g id="SVGRepo_bgCarrier" stroke-width="0"/>
<g id="SVGRepo_tracerCarrier" stroke-linecap="round" stroke-linejoin="round"/>
<g id="SVGRepo_iconCarrier"> <path style="fill:#ff5a5f;" d="M460.8,204.8H51.2c-21.171,0-38.4,17.229-38.4,38.4v179.2c0,21.171,17.229,38.4,38.4,38.4h409.6 c21.171,0,38.4-17.229,38.4-38.4V243.2C499.2,222.029,481.971,204.8,460.8,204.8z"/> <path style="fill:#fff;" d="M185.131,370.603c-10.436,0-18.483-3.857-23.936-11.477c-4.693-6.579-7.066-15.172-7.066-25.591 c0-10.505,2.381-19.123,7.091-25.609c5.461-7.586,13.508-11.452,23.91-11.452c10.368,0,18.415,3.866,23.945,11.494 c4.77,6.571,7.185,15.172,7.185,25.566c0,10.334-2.389,18.918-7.117,25.515C203.511,366.754,195.456,370.603,185.131,370.603z"/> <g> <path style="fill:#000000;" d="M48.009,369.766c0,3.601,1.348,6.912,4.173,9.66c2.398,2.116,5.376,3.226,8.602,3.226l5.751-0.828 l2.722-2.372c2.799-2.441,4.326-5.888,4.326-9.685v-26.522h25.122v26.522c0,3.601,1.348,6.912,4.028,9.54l5.026,3.354h3.729 l5.854-0.828l2.748-2.492c2.697-2.449,4.173-5.854,4.173-9.574v-72.337c0-3.746-1.451-7.177-4.378-9.847 c-2.372-2.048-5.274-3.14-8.397-3.14l-6.221,0.811l-2.825,2.816c-1.698,1.698-3.729,4.71-3.729,9.361v20.873H73.583v-20.873 c0-3.823-1.502-7.287-4.25-9.728c-2.347-2.099-5.376-3.26-8.55-3.26l-6.221,0.811l-2.825,2.816 c-1.698,1.698-3.729,4.71-3.729,9.361C48.009,297.429,48.009,369.766,48.009,369.766z"/> <path style="fill:#000000;" d="M185.131,382.652c14.123,0,25.779-5.538,33.673-15.966c6.775-8.772,10.197-19.934,10.197-33.152 c0-13.184-3.422-24.363-10.172-33.237c-8.073-10.522-19.396-15.863-33.698-15.863c-14.174,0-25.847,5.487-33.852,15.966 c-6.579,8.849-9.924,20.002-9.924,33.135c0,13.158,3.354,24.286,9.975,33.084C159.258,377.114,170.931,382.652,185.131,382.652z M171.588,315.452c3.072-4.275,7.253-6.178,13.551-6.178c8.124,0,11.648,3.541,13.577,6.204c3.149,4.335,4.753,10.411,4.753,18.065 c0,7.612-1.604,13.696-4.727,18.065c-1.954,2.662-5.478,6.204-13.602,6.204c-6.298,0-10.496-1.903-13.525-6.127 c-3.098-4.335-4.676-10.436-4.676-18.133C166.938,325.803,168.482,319.71,171.588,315.452z"/> <path style="fill:#000000;" d="M246.383,311.125h12.151v58.735c0,3.541,1.348,6.81,4.028,9.438l5.026,3.354h3.729l5.751-0.828 l2.722-2.372c2.773-2.423,4.301-5.837,4.301-9.591v-58.735h11.247c3.55,0,6.724-1.271,8.798-3.328 c2.697-2.364,4.173-5.623,4.173-9.148l-0.922-6.391l-3.251-2.859c-2.398-2.116-5.453-3.226-8.798-3.226h-48.947 c-6.997,0-12.075,5.248-12.075,12.476S239.386,311.125,246.383,311.125z"/> <path style="fill:#000000;" d="M339.106,380.902h38.775c4.574,0,7.552-2.039,9.173-3.661c2.398-2.338,3.729-5.478,3.729-8.815 l-0.828-6.391l-3.251-2.876c-1.673-1.459-4.548-3.209-8.823-3.209h-32.546v-11.273h27.622c4.523,0,7.501-1.988,9.276-3.729 c2.321-2.347,3.627-5.453,3.627-8.738l-0.828-6.46l-3.354-2.876c-1.647-1.434-4.523-3.14-8.721-3.14h-27.622v-8.61h31.223 c3.447,0,6.673-1.297,9.327-3.9c2.227-2.338,3.447-5.376,3.447-8.576l-0.802-6.391l-3.251-2.859 c-2.398-2.116-5.427-3.226-8.721-3.226h-37.453c-7.501,0-12.1,3.465-14.703,6.434c-3.046,3.558-4.651,8.098-4.651,13.124v55.714 c0,4.941,1.604,9.438,4.727,13.116C327.031,377.446,331.631,380.902,339.106,380.902z"/> <path style="fill:#000000;" d="M425.626,380.902h32.725c3.575,0,6.852-1.323,9.173-3.661c2.398-2.338,3.729-5.478,3.729-8.815 l-0.828-6.391l-3.251-2.876c-2.398-2.099-5.453-3.209-8.823-3.209h-26.496v-58.522c0-3.823-1.502-7.287-4.25-9.728 c-2.347-2.099-5.376-3.26-8.55-3.26l-6.221,0.811l-2.825,2.816c-1.698,1.698-3.729,4.71-3.729,9.361v64.026 c0,4.941,1.604,9.438,4.727,13.116C413.551,377.446,418.15,380.902,425.626,380.902z"/> <path style="fill:#000000;" d="M499.2,38.4c-7.074,0-12.8,5.726-12.8,12.8V64H25.6V51.2c0-7.074-5.726-12.8-12.8-12.8 S0,44.126,0,51.2v51.2c0,7.074,5.726,12.8,12.8,12.8s12.8-5.726,12.8-12.8V89.6h51.2V192H51.2C22.921,192,0,214.921,0,243.2v179.2 c0,28.279,22.921,51.2,51.2,51.2h409.6c28.279,0,51.2-22.921,51.2-51.2V243.2c0-28.279-22.921-51.2-51.2-51.2h-25.6V89.6h51.2v12.8 c0,7.074,5.726,12.8,12.8,12.8c7.074,0,12.8-5.726,12.8-12.8V51.2C512,44.126,506.274,38.4,499.2,38.4z M102.4,89.6h307.2V192 H102.4V89.6z M460.8,217.6c14.114,0,25.6,11.486,25.6,25.6v179.2c0,14.114-11.486,25.6-25.6,25.6H51.2 c-14.114,0-25.6-11.486-25.6-25.6V243.2c0-14.114,11.486-25.6,25.6-25.6H460.8z"/> </g> </g>
</svg>