<svg id="Lager_1" data-name="Lager 1" xmlns="http://www.w3.org/2000/svg" xmlns:xlink="http://www.w3.org/1999/xlink" viewBox="0 0 395 395"><defs><style>.cls-1{fill:url(#Namnlös_övertoning_15);}.cls-2{fill:url(#Namnlös_övertoning_21);}.cls-3{fill:url(#Namnlös_övertoning_21-2);}.cls-4{fill:url(#Namnlös_övertoning_22);}.cls-5{fill:url(#Namnlös_övertoning_21-3);}.cls-6{fill:url(#Namnlös_övertoning_21-4);}.cls-7{fill:url(#Namnlös_övertoning_21-5);}.cls-8{fill:url(#Namnlös_övertoning_21-6);}.cls-9{fill:url(#Namnlös_övertoning_21-7);}.cls-10{fill:url(#Namnlös_övertoning_21-8);}.cls-11{fill:url(#Namnlös_övertoning_29);}.cls-12{fill:url(#Namnlös_övertoning_21-9);}.cls-13{fill:url(#Namnlös_övertoning_21-10);}.cls-14{fill:url(#Namnlös_övertoning_21-11);}.cls-15{fill:url(#Namnlös_övertoning_21-12);}.cls-16{fill:url(#Namnlös_övertoning_21-13);}.cls-17{fill:url(#Namnlös_övertoning_21-14);}.cls-18{fill:url(#Namnlös_övertoning_21-15);}.cls-19{fill:url(#Namnlös_övertoning_21-16);}.cls-20{fill:url(#Namnlös_övertoning_21-17);}</style><linearGradient id="Namnlös_övertoning_15" y1="197.5" x2="395" y2="197.5" gradientUnits="userSpaceOnUse"><stop offset="0" stop-color="#a36620"/><stop offset="0.1" stop-color="#a36620"/><stop offset="1" stop-color="#a36620"/></linearGradient><linearGradient id="Namnlös_övertoning_21" x1="220.74" y1="202.63" x2="323.6" y2="197.89" gradientUnits="userSpaceOnUse"><stop offset="0" stop-color="#ffe450"/><stop offset="0.23" stop-color="#ffcf38"/><stop offset="0.48" stop-color="#ffbe24"/><stop offset="0.73" stop-color="#ffb319"/><stop offset="1" stop-color="#ffb015"/></linearGradient><linearGradient id="Namnlös_övertoning_21-2" x1="217.61" y1="134.69" x2="320.46" y2="129.94" xlink:href="#Namnlös_övertoning_21"/><linearGradient id="Namnlös_övertoning_22" x1="114.04" y1="357.84" x2="216.9" y2="353.09" gradientUnits="userSpaceOnUse"><stop offset="0" stop-color="#ffe450"/><stop offset="0.11" stop-color="#ffdb46"/><stop offset="0.16" stop-color="#ffd13a"/><stop offset="0.25" stop-color="#ffc229"/><stop offset="0.37" stop-color="#ffb81e"/><stop offset="0.54" stop-color="#ffb217"/><stop offset="1" stop-color="#ffb015"/></linearGradient><linearGradient id="Namnlös_övertoning_21-3" x1="222.89" y1="249.12" x2="325.75" y2="244.38" xlink:href="#Namnlös_övertoning_21"/><linearGradient id="Namnlös_övertoning_21-4" x1="222.55" y1="241.85" x2="325.41" y2="237.11" xlink:href="#Namnlös_övertoning_21"/><linearGradient id="Namnlös_övertoning_21-5" x1="227.16" y1="341.72" x2="330.02" y2="336.98" xlink:href="#Namnlös_övertoning_21"/><linearGradient id="Namnlös_övertoning_21-6" x1="220.09" y1="188.47" x2="322.95" y2="183.72" xlink:href="#Namnlös_övertoning_21"/><linearGradient id="Namnlös_övertoning_21-7" x1="228.09" y1="361.85" x2="330.95" y2="357.1" xlink:href="#Namnlös_övertoning_21"/><linearGradient id="Namnlös_övertoning_21-8" x1="227.27" y1="344.12" x2="330.13" y2="339.37" xlink:href="#Namnlös_övertoning_21"/><radialGradient id="Namnlös_övertoning_29" cx="196.13" cy="177.3" fx="156.10106731824487" r="149.49" gradientTransform="translate(225.59 -36.79) rotate(73) scale(1 0.51)" gradientUnits="userSpaceOnUse"><stop offset="0" stop-color="#f7d74f"/><stop offset="0.3" stop-color="#f9ce42"/><stop offset="0.86" stop-color="#feb61e"/><stop offset="1" stop-color="#ffb015"/></radialGradient><linearGradient id="Namnlös_övertoning_21-9" x1="216.19" y1="103.95" x2="319.04" y2="99.2" xlink:href="#Namnlös_övertoning_21"/><linearGradient id="Namnlös_övertoning_21-10" x1="215.72" y1="93.74" x2="318.57" y2="89" xlink:href="#Namnlös_övertoning_21"/><linearGradient id="Namnlös_övertoning_21-11" x1="215.26" y1="83.81" x2="318.12" y2="79.06" xlink:href="#Namnlös_övertoning_21"/><linearGradient id="Namnlös_övertoning_21-12" x1="215.71" y1="93.55" x2="318.56" y2="88.81" xlink:href="#Namnlös_övertoning_21"/><linearGradient id="Namnlös_övertoning_21-13" x1="216.88" y1="118.95" x2="319.74" y2="114.2" xlink:href="#Namnlös_övertoning_21"/><linearGradient id="Namnlös_övertoning_21-14" x1="226.96" y1="337.43" x2="329.82" y2="332.68" xlink:href="#Namnlös_övertoning_21"/><linearGradient id="Namnlös_övertoning_21-15" x1="213.03" y1="35.46" x2="315.88" y2="30.71" xlink:href="#Namnlös_övertoning_21"/><linearGradient id="Namnlös_övertoning_21-16" x1="218.51" y1="154.16" x2="321.36" y2="149.41" xlink:href="#Namnlös_övertoning_21"/><linearGradient id="Namnlös_övertoning_21-17" x1="213.92" y1="54.93" x2="316.78" y2="50.18" xlink:href="#Namnlös_övertoning_21"/></defs><title>Nobelpriset</title><circle class="cls-1" cx="197.5" cy="197.5" r="197.5"/><path class="cls-2" d="M173.1,206.72c-.95-4.25-8-4.79-13.17-.75C165,205,169,204.68,173.1,206.72Z" transform="translate(-0.37)"/><path class="cls-3" d="M117.57,140.23c-2.1-3.11-4.82-2.45-8.43-1.63C112.17,140.69,114.58,141.91,117.57,140.23Z" transform="translate(-0.37)"/><path class="cls-4" d="M130,369.21c-.81,15.93,29.4-7.32,32.45-7.79-.42-.9-1.17-.77-2.23.38-5.14-1,5-3.85,6.07-4.79,4.34-3.72,56.09-15.22,57.35-22.13C217,335.34,130.49,360.21,130,369.21Z" transform="translate(-0.37)"/><path class="cls-5" d="M338,244c.27-1.2-1.11.28,0,0Z" transform="translate(-0.37)"/><path class="cls-6" d="M367.43,295a194.1,194.1,0,0,0,25.72-96.85,197.69,197.69,0,0,0-1.47-24c0,.13,0,.26,0,.39,1,24.48.68,44.57-4.94,68.21C383,258.8,375.25,278.85,367.43,295Z" transform="translate(-0.37)"/><path class="cls-7" d="M164.92,347.42c.44-.23,6-3.85,4.69-5.28C167.11,339.5,160.55,347.6,164.92,347.42Z" transform="translate(-0.37)"/><path class="cls-8" d="M178.54,190.28q-1.26-2.53-2.68.43C176.84,192.26,177.74,192.12,178.54,190.28Z" transform="translate(-0.37)"/><path class="cls-9" d="M269.24,359.78q-.47-.3-.3-1.38a3.4,3.4,0,0,1,.93-.57c.12-.15.25-.3.4-.46a45.4,45.4,0,0,1,.3-5.34,85.41,85.41,0,0,0-7.93,16.07C265.05,366,266,361,269.24,359.78Z" transform="translate(-0.37)"/><path class="cls-10" d="M304.25,332c3-8.57-8.17-5.73-12.42-3.62-4,2-13.49,17.91-17.53,12.28,1,3-1.62,12.53-3.34,16C277.87,350.07,302.49,337.09,304.25,332Z" transform="translate(-0.37)"/><path class="cls-11" d="M41.45,310.79c4.5-.64-.11-3.42,2.06-5.67,10.08,12.65,19.3,25.32,32.1,35.38,3.54,2.79,27.09,20.58,29,12.93-10.76,2.31,2.78-20.35,3.77-22.57,2.14-4.84,18.25-35.74,19.89-25.71,3.48-8.95,15.58-30.65,8.27-37.38,4.21-.11,28.31,3,26.46,9-.21.69-11.24-3.19-15.31-.89-10.21,5.77-14.65,26.29-19.26,36.4-6.76,14.82-16.11,29.54-21.76,44.67-.23-.13,18.64-24.79,22.08-27.4l1.86-2.19h0c.85-1.93,1.65-2.45,2.42-1.55q-1.12,3.5-2.41,1.55c.86,1-.57,3.54-1.87,2.19,5.09,5.3-23.12,27.28-18.17,31.56,1.47,1.28,17-4.23,17.39-5.37,6.63-1.42,33.77-2.1,33.66-13.36,0-3.35-6.29-1.43-6.23-4.53.24-11.69,4-2.17,7.41-3.74,2.3-1.06-1.52-5.07-.64-6.61,1.75-3,5.1-6,6.57-8.88,2.32-4.58,1.84-11.44,5.16-15.86,1.85-2.47,17.85-16.93,22.29-12.86,6.73,6.18-11.82,4.72-10.53,9.44.59,2.16,4.13,1.36,5.26,1.38.12.41-20.6,16.49-17.57,19.25,1.67,1.52,6.63-1.87,4.55,2.6-2.2,4.7-7.09,8.22-11.45,10.61a17.63,17.63,0,0,0,6.8,2.18,37.08,37.08,0,0,0-.05,4.83c2.72,3.65,23.78-7,26.83-8.46,7.16-3.39,17.53-4,23.83-8,8.59-5.39,3.25-2.14,1.45-9.93s-1.46-13.23,3.38-20.53c-3.3-.54-19.19-1.74-20.87-3.82-4.77-5.93,4-3.42,6.24-4.38.89-.39,12.94-6.95,12.72-7,5.1.6.33.3,1.71,4.82,1.73,5.69-4.95,3.12,1.65,7.65,2.56,1.76,10.6,2.6,13.46,1,5.06-2.89,4.83-11.35,7.39-15.71s4.38-4.49,8-8.93c3.62,3.79-5.31,14.7-7.34,18.32-1.46,2.59-3,7.9-5.56,9.55s-7.5-.07-9.24,1.17c-3,2.17-4.71,7.24-5.36,11.75l-2.66,4.18a65.8,65.8,0,0,0,3.45,7.12c-.08,4.9,2.8,5.95-3.37,10.11.24,3.23,6.61-1.52,3.76,4.05,17.54.7,14.73-8.55,17.49-22.86.38-1.94,1.29-10.12,2.71-12.2,5.77-8.42,3.74-4.89,6.09,1,2.74,6.84-.19,25.86,10.81,12.51,4.13-5,.45-17,7.38-20.66,4.69-2.47,10.49,2,15.86-.16.24-1.67.62-1.55,0,0-2.93,6.87-5.83,12.31-7.62,19.26S277.74,324,277,330.78c-1.16,10.48.11,6.19,6,1.07,6.81-5.94,10-12.73,20-13.07,2.61,5.75,8.34-6.3,4-9.72-3.7-2.9-19.14,11.5-23,13.31,2.09-19.13,28.81-27.3,32.38-44.32,1.28-6.11-.62-9.09-3.53-13.15-1.27-1.79-14.35-13.83-13.52-5.38-3.15-3.37-3.14-7.75,1.84-9.17-1.57-2-19.49-14.32-20.41-14.17-3.2.5-14.4,19.57-15.9,22.36,1.23-15.36,26.1-26,5.87-36.07-17-8.46-19.94,8.42-34.73,14.76-5.81,2.49-6.65,5.05-7-.23.26,4,4.87-6.82,4.19-5.95,1.87-2.37,4.08-5,6.53-7.55,3.33-3.48,21.81-17.46,18-22.07-2-2.48-10.48,10.1-13.9,8.08a3.79,3.79,0,0,1,.53.62q-2.31,4.56-4,3s0,0,.05.05a34.92,34.92,0,0,1-10.7,8.55c.76-2,8.48-10.49,10.58-8.66a2.78,2.78,0,0,1-.44-.54c1.27-2.95,2.5-4.06,3.67-3.32l0,0c2.28-2.54,14.88-10.38,14.33-13.29-1.18-6.3-6.77-.83-8.26-5.36-.65-2,4.54-10.27,4.79-13,.16-1.73-2.56-9.07-4.25-9.14a8.89,8.89,0,0,0,4.64-7.68c-5.17,3.36-12.22,1.37-17.68,1,2.85-6.56-3.5-5,.95-9.84,7-7.59,7.7,1,13.53-2.18,11.47-6.26,2.61-15.19-5.58-2.93a119.64,119.64,0,0,1,3.7-13.57c1.21-3.22,4.68-1.27,6.32-3.56,1.17-1.65-4.93-3.42-4.28-5.61.57-1.89,5.29-2.93,5.9-6.36,1.48-8.32-6.5-13.08-11.18-14,.11,0-10.31-3.41-11.88,2-1.33,4.55,5.49,5.85,4.23,8.49-1.69,3.53-12.17-2-12.69-6.5,1.48.62,7.64,1.85,6.66-1.83-1-4-9.68-7.81-12.82-9.86,5.95-1.21,9.78,3.25,15,4.68-.12-2.43-9.35-8.89-1.89-9.42,6.79-.48,6.73,14.57,11.75.05.77-2.25-1.61-5-1.7-7.28,0-1.42,3.23-1.52,2.9-4.16-1.23-9.71-11.71-10.87-13.48-17.74.23,3.55,4.86,9.51,1.1,11.75-.47-1.38-5.06-9.42-5.84-10-2.41-1.91-2,.14-5.11-1.06-7-2.68-9.47.79-15.06-2.89-4.26,13.41,16.21,21.19,21.33,32-5.17-2-8.61-6-13.36-8.57-5-2.64-9.16.84-13.82-4.81,5.29-3.89,3-19.16-3.9-18.18-10.65,1.51.66,10.89-1,15.89C188,71.62,191,65.85,178.67,64.79c-4.65-.4-9.44.69-14.08-.06-2.49-.39-4.12-3.52-6.39-3.6-13.55-.44-13.86,15.51-25.83,18.1a36.83,36.83,0,0,0,3.18,5.94c-4.4,1.93-8-4.29-5.11,4.32,1.38,4.08,14.57,16,18.09,18.83-1.47-1.5,6.56,4.77,4.12,6.24-1.75,1.06-5.59-4.55-4.12-6.24-2,2.27-6.52-2-10.12,1.18-.78.71-.94,17.21-.66,17.39,3.09,1.94,5.07-2.06,8.24-3.46,7.29-3.2,4.28-4.7,10.78-1.34C150.12,127,121,137.74,126.71,120c1.42-4.4,8.65-4,8.16-12.12-.09-1.56-3.3-13.08-6.46-11.42.76-.41-6.56,25.77-13.68,18.12,3.15-5.86,12-9.28,11.13-16.74-.49-4.46-7.71-8.36-7.88-12.88-.22-5.88,5.13-7.63,9.11-12.45,8.47-10.22,14.25-25.93,28.7-30.23,6.06-1.81,12.61,3.23,17-.31-.91-1,.69-.87.16-.13.14-.12.27-.25.41-.39a5,5,0,0,0,4.19-1.18,43.1,43.1,0,0,0-6.39-6.47c11.17.22,19.43,7.74,31.46,7.3,5.68-.2,8.6-1.19,14.39-.08,6.8,1.31,12.71,4.69,20,5.36-4.54-9.86-33.63-9.86-41.7-11.25a10,10,0,0,1,1.08,2.46c-1,1.57-23.22-7.55-23.78-8.22,0,.28.13.42.43.42-4.54,8.25-17.49-7.56-7.48,9.49-7.84,1.37-14.39-13.9-4.43-18.41,11.35-5.13,30.35-1.16,42-.32,23.16,1.67,46.21,7.77,63.49,24.35,18.82,18.06,32,49.17,25.79,74.88-3.41,14.24-9.81,24-16.78,36.43-3.21,5.73-13.41,24.46-9.82,30.29,5.06-9,14.76,20.17,18.23,24.25,1.69,2,6.57,7.16,8.6,8.59,7.78,5.49,17.06,14.29,28.22,25,13.24,9.75,14.34,10.86,21.94,16.61,1.62,1.22,11.07,12.45,11.83,13.52.54.75.77,1.05,12.18,14.79C395,244,397.47,179.53,379.21,130.72c-8.88-23.74-20-43-36.93-61.74-7.17-8-14.28-15.6-22.86-22.21C315.13,43.46,297.81,35,297,29.05A194.13,194.13,0,0,0,199.87,3.17c-107.69,0-195,87.31-195,195a194.16,194.16,0,0,0,43,122.07Q44.49,315.66,41.45,310.79Zm89.6,14.8c.32-1.06,2.21-1.31,0,0Zm1.21-.79c.32-5.06,3-4.18,6-6A35.43,35.43,0,0,1,132.26,324.8Zm6-6c.09-.24.63-1.59,0,0Zm3.76-5.6c.63-3.16,2.05-5.57,6.35-6.92C146.31,309.74,144.67,312,142,313.22Zm9.93-24c-.7.74-.7-.75,0,0Zm1.19-1.73c-1.72-3.6-1.33-4.24,3.93-6.05A10.25,10.25,0,0,1,153.15,287.47ZM192.85,298a14.11,14.11,0,0,0-2.85.91,3.43,3.43,0,0,0-.72,1.92c-.75-.7-.5-1.34.72-1.92C191.1,297.49,193,297.4,192.85,298Zm83.44,36.89c-2.21-2.38-.16-3.61,0-4.06Zm-.07-4.12c1.07-1.55,0,0,0,0Zm25-12c.14-.22.95-1.39,0,0ZM242.84,196.09c-3.78,1.14-.64-1.83,0,0Zm-3-70.17c7.41-11.29,11.33,7.06,0,0Zm4.56,5.43c3,4.39-5.41,8.56-7.47,10.47C236.63,139.91,241.57,127.17,244.43,131.35ZM141,117.08c-3.23-1.4,9.87-1.66,9.47-1.52C148.8,119.1,144.34,118.52,141,117.08Zm0-29.52A18.67,18.67,0,0,1,151.48,96C147.91,93.36,142.72,92.67,141,87.56Zm80.21-47.8c-1.81,2.36,0-1.3,0,0ZM338.59,229.14c-1.15.76-1.37-1.28,0,0ZM210.41,4.14c-8.83,1.3-17.74-.22-26.58.71C192.64,2.94,201.53,3.76,210.41,4.14ZM116.83,80.29c-2.3-1.59,1.21-1.43,0,0Zm30.83,179.32c1,4.36,5.5,4.38,7.59,7.61C148.33,266,146.25,264.06,147.66,259.61Zm3-1.87c3.7-7.36,3.28-15.89,10.54-21C160.08,242.91,154.8,252.78,150.69,257.74Zm10.62-20.9a3.07,3.07,0,0,1,.62-4.34C164.49,235.49,161.75,234.79,161.31,236.84Zm4,45.84c-1.25-5.2-.68-8.46,4.55-10.78Zm6.44-4.09c-.15-.83-3.44-12.43-1.55-13.75-.91.63,10.73,6.93,10.8,7.83C181.06,273.89,172.61,278,171.72,278.59Zm.5-18.12c5.15-3.37,5.35.71,6,4.12Zm6.72-3.72c-2.39-1.45,2.35-.94,0,0Zm2.65-.09c1.36,1.63,1.11,5.07,3.17,5.95,1.49.64,3.76-.45,4.88.52C184.58,271.34,179.14,262.67,181.59,256.66Zm7.51,6c2-3.49.83.78,0,0Zm3.18,23.12a3.9,3.9,0,0,1-4.39-.92c-1.1-3.9,21.81-30.5,25.31-25.78C216,262.89,195.42,282.93,192.28,285.76Zm17-44.95c3.06-1.52-7.2,8.14-5,6A6.14,6.14,0,0,1,209.27,240.81Zm-.05-.05,2-2C211.45,238.52,209.09,241.15,209.22,240.76Zm-5,6c-2.05,1.58-.38.21,0,0Zm8-9h0l-1,1,1-1c.17-.44.74-1,0,0C212.41,237.65,212.45,237.61,212.26,237.8Zm23-76c.06.05-.52,1.11,0,0Zm3.05,36.06c.71-1.35.19-.22,0,0-.63.26-3.44,1.68-4,2A2.82,2.82,0,0,1,238.28,197.82Zm-4,2c-1.48,1.17-1.17,0,0,0Zm-7.79-81.84c-1.74-.82-2.8-1.45-3.4-3C225.15,114.59,226.09,115.37,226.47,117.94ZM216,104.15c1.87-.27.73,1.39,1.12,1.79C216.29,106,214.46,104.38,216,104.15Zm-9.27-13.59c.78-3.66,2.89-4.77,2.64-4.91,3.48-3.53,3.33,1.42,3.85,2.66.34.83-4.51.64-4.52.65-1.05,1.65,6.38,5.62,6.55,4.08-.69,6.45-10.45,0-14.3-3.31A14,14,0,0,1,206.74,90.56ZM215,110.22c2.34,2.29,2.2-3.85,2.28-4.46,11.89,3.61-7.76,9.94-9.73,10.94.94-8.51-3.08-6.52-6.75-12.88C202.67,104.65,220.41,108.54,215,110.22Zm-53.71,59.12a6.61,6.61,0,0,1-5.14-4.2C160.42,164.66,161.26,169.34,161.28,169.34ZM168.94,187c2.9-1,6.66-2.3,9.25-4,.9-.6-3.17-3.63-3.23-4.2,6.3,3.85,15.67.56,17.08-6.39a51.74,51.74,0,0,0-8.18,1.64,13,13,0,0,0,1.78,3.9c-4.11-2.17-6.15-.51-8.42-5.12,1.23,0,11.89-4.43,13-5.29a6.29,6.29,0,0,1-.32-4.22,41.15,41.15,0,0,0,4.4-.72c1.42-3.62-5.76-4.62-7-4.78.33-1.82,3.69-10.67,0-10-2,1.55-1.8,1.07,0,0,6.7-1.27,3.62-4.84,6.86-10.3,6.15,5.86,5.69-2.84,10.34-4-9.07-6-7.92-7.12-11.71-15.77a19.4,19.4,0,0,0-4-4.31c-.18.12-.29.14-.29,0s.12-.12.29,0a58.17,58.17,0,0,0,5.47-5.59h0s0,0,0,0c3.73,3.14,5.68,2.07,11.38,4,.16,3.89-7.43.5-7.33,4.22.16,6.23.27,9.32,7.52,12.29a25.82,25.82,0,0,1,.72-8.71c2.11,3.07,9.31-7.54,15.68-5.27-7.37-.21-9.14,7.78-8.63,12.32,0-.3,9.73,17.29,4.18,14.77-2.06-.94-3.39-10.67-5.34-12.66-4.49,6.21-14.81,13.74-7.34,17,13.22,5.88,17.55-9.37,19.17-17.95,5.59,7.62-1.91,21-10.24,22.85-4.08.9-15.54-6.46-18.42,1.46-4.29,11.76,8.1,7.39,12.39,5.28,9.63-4.75,16.87-9.85,20.26-20.36,1.48-4.59-.41-15.76,2.19-18.46s2.1,20.29.42,23.79c-5,10.33-15.13,13.5-22.83,20.92-5.6,5.4-11.07,14-14.56,20.88-3.14-.09-2.47-7-7.44-1.67-.07.07.72,8,.37,9.18-2.48,8.58-14.52,10.61-8.55,19.23-.44-.63-5.29,7.14-3.46,6.72-5,1.12-12-11.81-9.73,2.63.88,5.56,6.14,12.66,8.91,17.6,2.65,4.72,4.48,1.3,6.62,3.9A29.23,29.23,0,0,1,173,249c-.16-21.46-21.93-34.9-36.09-39.68-17.36-5.87-40.21-4.29-30.68-27.74-.29,5.18,4.46,19.33,11.84,16.7,3.49-1.25,2.71-5.59,2.41-9.84a6.69,6.69,0,0,1-.07-3.07,24.42,24.42,0,0,0,.07,3.07c1,4.64,5.36,10.57,8.3,11.4,5.53,1.55,19.38-7.57,25.18-9S163.64,188.9,168.94,187Zm18.31-29.23c-.56.64,0,0,0,0Zm-51,26c-.06,0-2.65-5.37,0,0Zm1.38,2.15c-1.16-.29-1.06-1.47-1.42-2.11Zm4.37-6c13.8-7.64,3.9,3.93,0,0ZM140.48,169c-1.37,1-6.13-7-6.37-7.66C137,160.79,144.22,166.33,140.48,169Zm-4.64,6.15c.06.35-.41,5.72-.55,6.58C134.49,179.2,132.72,177.18,135.84,175.16ZM122.69,133c-1.35-.3-6.71.22-6.8-2.41C115.64,122.75,135.85,131,122.69,133Zm-8.15-17.17c-1.48,7.27-14.09,12.8-10.52,18,3.43,5,15.63-.09,20.35,3.17,3.87,2.66,6.58,10.47,8.83,15.61.24,4.86-4,14.53-11,6.73,7.05-3.76,6.08-2.66,5.19-9.74-.93-7.32-2.48-7-6.4-7.19.62,0-12.05,3.88-11.92,3.77-3.27,2.67-2.82,5-2.52,9.36a5.15,5.15,0,0,0,.94-3.74c3.12,3.6,6.11,7.52,5.69,12.62a9.59,9.59,0,0,1,4.91-2.62c1.22,3.58-.51,15.65-3.12,18.66-3.9-4.59-9.18-12.71-11.09-18.26-2.5-7.23,2-12,1.34-18.18-.47-4.33-5.52-6.54-6-11.69-.26-3.09,8.64-13.5,13.07-16.15C113.37,115.62,114.16,115.43,114.54,115.84ZM95.81,350.09Zm-5.22-.62q-2.5-9.56-5-19.12C89,336.26,92.08,342.29,90.59,349.47ZM87,321.55c-.08,2.33.4,4.24-1.05,6.59C84.84,325.37,85.23,323.6,87,321.55ZM7.34,169.34c-.42,13-2.15,25.93-1.11,39A126.73,126.73,0,0,1,7.34,169.34ZM7.1,217.49c2.87,6.4,1.55,12.86,4.58,19.82C8.43,233.89,6.35,223.55,7.1,217.49Zm9.31,40.75c1.09.8,6.14,7.09,3.31,9A14.71,14.71,0,0,1,16.41,258.24Zm19.17,40c-.79-.63-1.1-1.2-1-1.72l0,0c-2-1.36-4.4-4.86-3.07-6.94a4.54,4.54,0,0,1-.8.66c-1.34-1.41-3.77-4.57-2.5-6.34a2.62,2.62,0,0,1-.65.32c-.82-.67-1.14-1.27-1-1.79v0c-1.55-2.67-8.81-13.09-6.17-15.8,1.55,2.87,8.51,11.65,6.6,15.22a2.76,2.76,0,0,1,.55-.37c1,.77,1.35,1.42,1.12,1.93h0c3.19,2.24,4.25,4.14,3.18,5.73v0c2.08.84,4,4.75,3.08,6.8a3.31,3.31,0,0,1,.63-.46c1,.75,1.4,1.38,1.18,1.89h0c1.94,2.49,7.64,5.05,3.91,8.91-1.51-1.36-5.94-6.11-4.4-8.4A3.61,3.61,0,0,1,35.58,298.2Z" transform="translate(-0.37)"/><path class="cls-12" d="M255.16,98.94c-1.61,1.11-.06,4.77.12,4.81.1.74,2.62,1.65,3.07,1.51C255.47,104.08,256.17,98.24,255.16,98.94Z" transform="translate(-0.37)"/><path class="cls-13" d="M261.08,100.8c2.51-6.12-.9-12.26-1.84-18.22C249.46,86.25,256.46,96.53,261.08,100.8Z" transform="translate(-0.37)"/><path class="cls-14" d="M247.76,77.56a15.94,15.94,0,0,0,2.6,9.37C250.62,82.37,250.48,81.8,247.76,77.56Z" transform="translate(-0.37)"/><path class="cls-15" d="M276.3,92.74c.06,1.21.13,2.41.2,3.62,1.45-2.78-2.48-9.36-4.16-11A12,12,0,0,0,276.3,92.74Z" transform="translate(-0.37)"/><path class="cls-16" d="M264.62,110.48a23.79,23.79,0,0,0,2.19,12.42C266.81,118.63,268.11,114.1,264.62,110.48Z" transform="translate(-0.37)"/><path class="cls-17" d="M161.16,338.11l1.74,4.62a4.58,4.58,0,0,0,3.16-3.57C165.46,336.82,162.5,339.14,161.16,338.11Z" transform="translate(-0.37)"/><path class="cls-18" d="M174.75,37.07Z" transform="translate(-0.37)"/><path class="cls-19" d="M251.88,152.16c-1.62-.35-2.94.25-4.5,1.11C249.35,153.75,250.54,152.73,251.88,152.16Z" transform="translate(-0.37)"/><path class="cls-20" d="M222.06,57.74c-2-3.12-2.94-5.7-7.62-6C217,54.45,218.36,56.6,222.06,57.74Z" transform="translate(-0.37)"/></svg>